<?xml version="1.0" encoding="utf-8"?>
<!-- Generator: Adobe Illustrator 27.3.1, SVG Export Plug-In . SVG Version: 6.00 Build 0)  -->
<svg version="1.1" id="Camada_1" xmlns="http://www.w3.org/2000/svg" xmlns:xlink="http://www.w3.org/1999/xlink" x="0px" y="0px"
	 viewBox="0 0 670 435" style="enable-background:new 0 0 670 435;" xml:space="preserve">
<style type="text/css">
	.st0{fill:#87CCEB;}
	.st1{fill:#124472;}
	.st2{fill:#1479BF;}
	.st3{fill:#87CBEB;}
	.st4{fill:#11132A;}
	.st5{fill:#ADB5C1;}
	.st6{fill:#365872;}
	.st7{fill:#044E8A;}
	.st8{fill:#436C89;}
	.st9{fill:#9DA4B0;}
	.st10{fill:#E49D9D;}
	.st11{fill:#1D2D45;}
	.st12{fill:#8C9DA0;}
	.st13{fill:#EDA9A7;}
	.st14{fill:#6984A2;}
	.st15{fill:#364352;}
	.st16{fill:#10112B;}
	.st17{fill:#2D3C49;}
	.st18{fill:#2E3B48;}
	.st19{fill:#8FA2B5;}
	.st20{fill:#1779BD;}
	.st21{fill:#87CCEC;}
	.st22{fill:#4DBC93;}
	.st23{fill:#86CCEC;}
	.st24{fill:#4EBA93;}
	.st25{fill:#4DBB92;}
	.st26{fill:#4BB991;}
	.st27{fill:#12548C;}
	.st28{fill:#065388;}
	.st29{fill:#F1A09E;}
	.st30{fill:#88CCE8;}
	.st31{fill:#1D79BE;}
	.st32{fill:#8ACBEB;}
	.st33{fill:#052A5D;}
	.st34{fill:#194D73;}
	.st35{fill:#7B8895;}
	.st36{fill:#171427;}
	.st37{fill:#629B80;}
	.st38{fill:#072F5B;}
	.st39{fill:#4D6E85;}
	.st40{fill:#8B6368;}
	.st41{fill:#246091;}
	.st42{fill:#6C8091;}
	.st43{fill:#A6CBF2;}
	.st44{fill:#50BA94;}
	.st45{fill:#43728C;}
	.st46{fill:#5781A7;}
	.st47{fill:#86919A;}
	.st48{fill:#577683;}
	.st49{fill:#527085;}
	.st50{fill:#5C768B;}
	.st51{fill:#ACB8BD;}
	.st52{fill:#045385;}
	.st53{fill:#3E6B86;}
	.st54{fill:#41728F;}
	.st55{fill:#406E8C;}
	.st56{fill:#035384;}
	.st57{fill:#87CCE8;}
	.st58{fill:#1B78B9;}
	.st59{fill:#8CCBE7;}
	.st60{fill:#0A2254;}
	.st61{fill:#98909D;}
	.st62{fill:#114570;}
	.st63{fill:#818A94;}
	.st64{fill:#9296BA;}
	.st65{fill:#577285;}
	.st66{fill:#8D9DB4;}
	.st67{fill:#0E456E;}
	.st68{fill:#0F4673;}
	.st69{fill:#F2A39F;}
	.st70{fill:#704A5F;}
	.st71{fill:#254774;}
	.st72{fill:#818894;}
	.st73{fill:#06457F;}
	.st74{fill:#7E8B96;}
	.st75{fill:#838A97;}
	.st76{fill:#7A8A95;}
	.st77{fill:#1279C0;}
	.st78{fill:#88CCED;}
	.st79{fill:#1379C0;}
	.st80{fill:#355B6F;}
	.st81{fill:#1579C0;}
	.st82{fill:#1878BC;}
	.st83{fill:#0B5185;}
	.st84{fill:#0F77BD;}
	.st85{fill:#085085;}
	.st86{fill:#0F78BD;}
	.st87{fill:#0C467D;}
	.st88{fill:#021428;}
	.st89{fill:#53788C;}
	.st90{fill:#F4A29C;}
	.st91{fill:#F3A39A;}
	.st92{fill:#F2A6A2;}
	.st93{fill:#7BB3E0;}
	.st94{fill:#87CCEA;}
	.st95{fill:#0F152D;}
	.st96{fill:#12152C;}
	.st97{fill:#10476E;}
	.st98{fill:#157ABF;}
	.st99{fill:#065286;}
	.st100{fill:#F49F9A;}
	.st101{fill:#1579BE;}
	.st102{fill:#4E7DA4;}
	.st103{fill:#1277BD;}
	.st104{fill:#A0CAEA;}
	.st105{fill:#A4C8E4;}
	.st106{fill:#ABD8C9;}
	.st107{fill:#ABDDC8;}
	.st108{fill:#00173E;}
	.st109{fill:#497E9E;}
	.st110{fill:#1677BD;}
	.st111{fill:#035486;}
	.st112{fill:#86CCEB;}
	.st113{fill:#4A9FD3;}
	.st114{fill:#1578BD;}
	.st115{fill:#1576B9;}
	.st116{fill:#F5A29C;}
	.st117{fill:#025384;}
	.st118{fill:#147BB8;}
	.st119{fill:#EDA4A3;}
	.st120{fill:#DAA1A3;}
	.st121{fill:#3E3750;}
	.st122{fill:#1C76B6;}
	.st123{fill:#1A76B5;}
	.st124{fill:#443751;}
	.st125{fill:#074F85;}
	.st126{fill:#3D87B6;}
	.st127{fill:#3A80B7;}
	.st128{fill:#1A76BA;}
	.st129{fill:#1C79BD;}
	.st130{fill:#001B54;}
	.st131{fill:#587085;}
	.st132{fill:#223C5F;}
	.st133{fill:#5C778B;}
	.st134{fill:#A199B2;}
	.st135{fill:#8EA4B4;}
	.st136{fill:#5276A7;}
	.st137{fill:#86C7EA;}
	.st138{fill:#84C9EC;}
	.st139{fill:#13436C;}
	.st140{fill:#1579BF;}
	.st141{fill:#92A3B7;}
	.st142{fill:#1A74B5;}
	.st143{fill:#86CBEA;}
	.st144{fill:#90A1B4;}
	.st145{fill:#7BC2E5;}
	.st146{fill:#137AC0;}
	.st147{fill:#1079BE;}
	.st148{fill:#1679BF;}
	.st149{fill:#1779BE;}
	.st150{fill:#77899C;}
	.st151{fill:#F6A09A;}
	.st152{fill:#0D527A;}
	.st153{fill:#F5A29B;}
	.st154{fill:#407B9D;}
	.st155{fill:#001C43;}
	.st156{fill:#2078B8;}
	.st157{fill:#2D94AE;}
	.st158{fill:#1479BC;}
	.st159{fill:#836470;}
	.st160{fill:#94AABA;}
	.st161{fill:#2B98B3;}
	.st162{fill:#1476C1;}
	.st163{fill:#025587;}
	.st164{fill:#15436E;}
	.st165{fill:#D6F5FF;}
	.st166{fill:#65BFCE;}
	.st167{fill:#91D3E2;}
	.st168{fill:#0055AA;}
	.st169{fill:#1A78C6;}
	.st170{fill:#B56167;}
	.st171{fill:#F0EDF2;}
	.st172{fill:#39657D;}
	.st173{fill:#F4B3BD;}
	.st174{fill:#FFFFFF;}
	.st175{opacity:0.5;fill:#F7BFC5;}
	.st176{opacity:0.5;fill:#0055AA;}
	.st177{fill:#DD4C38;}
	.st178{fill:#DF9296;}
	.st179{fill:#CD4438;}
	.st180{fill:#F7BFC5;}
	.st181{fill:#482320;}
	.st182{fill:#E4DFE8;}
	.st183{fill:#B1A9B9;}
	.st184{fill:#75DECB;}
	.st185{fill:#FFB0C9;}
	.st186{fill:#091143;}
</style>
<g>
	<path class="st0" d="M1359.7,122.5c10.5,11.6,15.3,25.5,17.2,40.8c2.2,17.4,0,34.4-4.5,51.2c-0.5,1.9-0.4,3.9-0.6,5.9
		c-1.8,1.3-3.2,0.3-4.7-0.6c-13-10.5-28-15.4-44.5-15.9c-7.6-0.2-15.2,0-22.9-0.1c-2.1,0-4.3,0.2-6.2-1.2c-1.9-4.7-2.3-9.8-2.4-14.6
		c-0.3-9.3-4.5-18.1-3.7-27.5c0.4-5.1,1.1-6,6.2-6.4c13.2-1,15.9-3.8,17.1-16.9c2.2-4.5,5.4-8.4,5.4-14c0-3.4,3.7-3.8,6.6-3.9
		c4.6-0.1,9.5,0.9,11.5-5.1c0.6-1.7,3.1-0.6,4.4-2c-1.2-2.4-3.9-2.9-5.6-4.6c-2.2-2.2-2.2-3-0.1-5.1c6.4,3,12.5,6.4,17.9,11.1
		c0.4,1.2-0.4,2.2-1.3,2.2c-4.4,0.2-3.3,2.6-2.7,5.4c0.6,2.4,1,4.9,1.2,7.3c0.2,2.1-0.2,4.9,2.8,5c2.7,0.1,3-2.7,3.5-4.7
		C1355.1,125.7,1356.2,123.1,1359.7,122.5z"/>
	<path class="st0" d="M1332.8,102.4c-2,1.7-0.7,3,0.6,4.1c1,0.8,2.4,1.2,3.4,2c1.7,1.2,4.6,2.3,4.3,4.3c-0.4,2.5-3.1,1.6-5.1,1.3
		c-1.4-0.2-1.9,1-1.9,1.8c-0.2,4.6-3.3,4.7-6.7,4.5c-1.2-0.1-2.3,0-3.5,0c-6.9,0-7.5,0.2-7.1,6.9c0.3,4.6-3.6,6.1-5.2,9.2
		c-1.6,0.3-2-1-2.8-1.9c-4.3-7-9-13.9-13.5-20.8c-3.9-5.8-9.3-9.2-16.5-9.6c-1.3-0.9-3.7-1.4-1.2-3.6c17.9-6.3,35.7-6.9,53.4,0.8
		C1331.8,101.7,1332.3,102.1,1332.8,102.4z"/>
	<path class="st1" d="M1374.6,334.6c-4.4-1.9-7.2-5.3-8-10c-0.6-6.3-0.6-6.3-8.9-5.3c-0.3,0.4-0.8,0.8-0.8,1.1
		c1.3,8.9-3.9,13.2-11.3,15.9c-1.6,1.3-3.5,0.4-5.2,0.6c-1-0.2-1.8-0.9-2.8-1.3c-6.8-2.6-8.2-8.9-9.9-14.9
		c-5.2-1.7-10.3-1.3-15.5-0.1c-0.6,0.5-1.2,1-2,1.1c-2.3-0.9-2.8-2.4-1.6-4.5c3.6-2,7.6-0.7,11.3-1.1c0.6,0,0.4,0.6,0.4,0
		c0-0.7-1-0.4-1.4-0.6c-2.4-0.7-4.9-1.1-7.3-2.1c-1.1-0.5-2.3-0.7-3.5-0.9c-7.8-2.1-15.7-4.3-23.4-6.8c-2.7-0.8-5.4-1.3-8-2.2
		c-2.3-1.3-5.4-0.9-7.2-3.2c0.8-1.8,0.2-4.3,2.6-5.2c3.9,0,7.4,1.7,11,2.6c8.2,2.7,16.9,3.7,24.6,7.8c7.1,4,15.5,4.3,22.8,7.9
		c1.4,0.7,2.7-0.9,3.9-1.7c8-5.7,15.5-4.4,21.4,3.8c3.9,1.1,7.9,0.9,11.8,0.1c3.5-5.7,8.6-8.2,15.1-7c5.7,1.1,9.3,4.8,10.7,10.5
		c1.5,6.2-1.2,11.7-7.7,15.6C1382.4,337.9,1378.4,337.9,1374.6,334.6z"/>
	<path class="st2" d="M1307.8,305.3c-8.6-1.5-16.8-4.2-25-6.9c-2.5-3.7-2.3-8.1-3.3-12.2c-0.7-2.7-1.2-5.4-2.9-7.7
		c0-1.8,1.5-2,2.7-2.3c5.4-1.4,10.7-3.5,16.2-4.6c2.6-0.4,5-2.5,7.8-0.9c2.9,5.2,2,11.3,3.5,16.8c0.3,1.5,0.1,2.8-0.8,4.1
		C1306.1,296.1,1308.3,300.5,1307.8,305.3z"/>
	<path class="st3" d="M1306,291.5c-0.1-1.3-0.1-2.7-0.2-4c-0.9-2.7,0.7-3.8,2.8-4.1c5.3-0.7,9.4-2.4,9.4-8.8c0-1.4,1.1-2.8,2.5-2.8
		c5.4,0.1,5.6-3.5,5.5-7.4c0-0.5,0.3-0.9,0.5-1.4c2.7-2.3,6.2-2.9,9.5-3.8c3-0.8,5.8-2,8.4-3.8c2.6-0.5,5.2-1.2,7.4,1.1
		c-11,14.3-25,24.8-40.8,33.1C1309.4,290.5,1307.9,291.5,1306,291.5z"/>
	<path class="st4" d="M1258.9,64.4c3.8,0,7.3,1.8,10.7,2.9c5,1.6,3.4,7,3,10.9c-0.2,1.7-0.8,3.5-0.8,5.3c-2.5,2.5-2,6.3-4.1,8.9l0,0
		c-0.3,0.5-0.6,1.1-1.3,1.3c-2.6,0.4-1.8,3.2-3.2,4.5c-2,2.4-4.6,2.7-7.5,2.1c-0.5-0.2-0.8-0.4-1.2-0.8c-0.3-1.8,1.9-2.4,2.1-3.9
		c0.3-1,0.5-1.9-0.1-2.9c-0.8-1.1-1.7-2.2,0.3-3c7.1-0.1,9-1.8,8-7.5c-0.1-0.8,0-1.6,0.3-2.4c2.9-6.2-1.2-12.3-8.1-12
		c-3.8,0.2-5.5,2.6-5.9,6.1c-0.2,1.7-0.1,3.5-2.7,2.7l0.2-0.2l-0.2,0.3c-2.5-4.1-0.5-7.8,1-11.5l0,0
		C1252.6,63.7,1255.7,63.6,1258.9,64.4z"/>
	<path class="st5" d="M1285.8,337.2c-44.7,0-89.4,0.1-134.1,0.1c-24.9,0-49.9-0.1-74.8-0.1c-0.2-0.7,0-1.2,0.6-1.6
		c9.3-1.5,18.8-0.3,28.1-0.7c2.8-0.2,5.6-0.1,8.5,0c9.8,0.1,19.6,0,29.5,0c2.6-0.2,5.1-0.2,7.7,0c21.8,0,43.7,0,65.5,0
		c13.3,0,26.6,0,39.8,0c9.5,0.5,19.1-0.8,28.6,0.7C1285.8,336,1286,336.5,1285.8,337.2z"/>
	<path class="st0" d="M1359.7,122.5c-2.7,2.3-4.1,5.3-4.7,8.7c-0.4,2.5-1.8,4.5-4.7,4.1c-2.8-0.4-3.4-2.6-3.5-5.2
		c-0.3-4-0.4-8.1-2.4-11.9c-1.3-2.5,0.1-4,2.7-3.4c1.7,0.4,2.9,0.5,3.7-1.2C1354.4,115.9,1357.4,118.8,1359.7,122.5z"/>
	<path class="st6" d="M1351.8,256.6c-2.6,0-5.2-0.1-7.7-0.1c-4.3,2-8.9,1.6-13.5,1.9c-9.9-1.1-19.9,0.1-29.9-0.5
		c-8.6,0.2-17.2,0.2-25.7,0c-5,0.2-10.1,0.1-15.1,0c-7.5-0.5-15.1,0.9-22.5-0.9c-0.6-0.4-0.8-1-0.6-1.7c0.5-0.5,1.1-0.8,1.7-0.9
		c2-0.4,4-0.3,6-0.3c44.9,0,89.8,0,134.8-0.1c3.7,0,7.2,1.5,10.8,0.7c0.6-0.1,1.2-0.1,1.8-0.2c-1.3,2.7-3.8,2-5.9,2
		C1374.5,256.5,1363.2,256.5,1351.8,256.6z"/>
	<path class="st7" d="M1368,219.2c1.4,0,2.2,1.7,3.8,1.2c0.3,0.1,0.6,0.1,0.9,0.1c0.2,1.3-0.7,1.6-1.6,2c-4.9,1-9.9,0.4-14.9,0.5
		c-15.5,0.2-30.9-0.3-46.4,0.4c-1-0.2-1.9-0.5-2.1-1.6c0.4-1.4,1.4-2.1,2.7-2.6c2.5-1.2,5.2-1,7.8-1.1c14.6-0.1,29.1,0.1,43.7-0.1
		C1364,217.9,1366,218.5,1368,219.2z"/>
	<path class="st8" d="M1391.8,242.9c-2.2-1.6-4.7-1.5-7.2-1.5c-32.6,0-65.2,0-97.9,0c-2,0-4-0.1-6-0.2c-0.3-0.6-0.1-1,0.4-1.4
		c1.2-0.7,2.6-0.7,4-0.8c0.8,0,1.7-0.1,2.5-0.1c4.4-0.1,8.7-0.1,13.1,0c0.9,0,1.8,0,2.8,0c26.3-0.2,52.7-0.2,79-0.1
		c0.9,0,1.7,0.1,2.6,0.1c0.6,0,1.1,0.2,1.5,0.6C1387.9,241.3,1391.9,239,1391.8,242.9z"/>
	<path class="st9" d="M1374.6,334.6c3.8,2.6,7.5,2.4,11.2-0.1c4.3,2,9.1-0.3,13.6,1.9c-3.9,1.5-8.1,0.8-12.1,0.9
		c-4.2,0.1-8.3,0.1-12.5,0c-4.2-0.1-8.5,0.6-13.7-0.8C1366.1,334,1370.7,336.5,1374.6,334.6z"/>
	<path class="st10" d="M1267.7,92.4c0.4-2.5,0.9-4.9,1.1-7.4c0.2-2.1,1.8-1.5,3-1.6C1273.9,88.6,1273,90.4,1267.7,92.4z"/>
	<path class="st11" d="M1382.6,226.2c-1.1-1.3-2.1-2.6-3.2-3.8c4.3,0.4,4.9,4.2,6.5,7c0.6,3.3,0.6,6.6,0,9.9
		c-0.4,0.4-0.9,0.7-1.3,1.1c-0.9-1.1-1.1-2.4-1.1-3.7c0-2.5,0.1-5.1-0.8-7.5C1382.4,228.2,1382.1,227.2,1382.6,226.2z"/>
	<path class="st12" d="M1391.8,254.4c1.7-3.6,1.8-7.3,0.5-11c1.9-1.4,2,0.6,2.1,1.4C1394.8,248.3,1396.4,252.2,1391.8,254.4z"/>
	<path class="st13" d="M1267.8,97.5c0,0.3,0,0.6,0,1c0,0.7,0,1.3-0.1,2c0,0,0,0,0,0c-0.6,0.8-1.1,1.7-2.3,1c-1.1-1.4-1.6-3-1.5-4.8
		c0.4-1.5,1.2-2.6,2.7-3.2c0.3-0.3,0.7-0.7,1-1C1267.8,94.1,1267.8,95.8,1267.8,97.5z"/>
	<path class="st14" d="M1357.7,319.2c0.9-0.9,2.1-0.7,3.2-0.7c6-0.2,6-0.2,5.7,6.1C1367,317.2,1361.2,320.2,1357.7,319.2z"/>
	<path class="st15" d="M1031.8,341.6c4.2,0,8.4,0,12.5,0c0,0.2,0,0.4,0,0.6c-4.2,0-8.5,0-12.7,0
		C1031.6,341.9,1031.7,341.8,1031.8,341.6z"/>
	<path class="st16" d="M1249.6,65.3c-0.4,3.8-2.8,7.5-1,11.5c-2.5-1.5-1.7-4.1-1.9-6.3C1247.9,68.9,1247.6,66.4,1249.6,65.3z"/>
	<path class="st17" d="M1060.4,342.2c-4.2,0-8.4,0-12.6,0c0-0.2,0-0.3,0-0.5c4.1,0,8.3,0,12.4,0
		C1060.3,341.9,1060.3,342.1,1060.4,342.2z"/>
	<path class="st18" d="M1065.4,341.6c4,0,8.1,0,12.1,0c0,0.2,0,0.4,0,0.5c-4.1,0-8.2,0-12.3,0
		C1065.3,341.9,1065.3,341.8,1065.4,341.6z"/>
	<path class="st19" d="M1367.8,315.4c-4,1.4-7.9,1.6-11.8-0.1C1359.9,315.3,1363.8,315.3,1367.8,315.4z"/>
	<path class="st16" d="M1258.9,64.4c-3.1,0.3-6.2,0.6-9.4,0.9C1252.5,62.5,1255.7,63,1258.9,64.4z"/>
	<path class="st20" d="M1258.8,154.4c4.6-0.6,6.4,1.1,6,6c-0.9,10.5,2,20.6,3.1,30.9c-2.4,0.6-2.1-1.5-2.5-2.7
		c-0.9-2.5-1.3-5.2-1.7-7.8c-0.5-3.6-2.8-4.9-7.1-6c3.7,5.6-3.5,8.6-2.2,13.7c2.7-0.9,2.7-3,3.7-4.5c1.9-2.8,3.4-2.1,4.8,0.3
		c1.5,2.6,1,5.5,1.1,8.3c0,2-0.6,4.3,1.7,5.8c2.7-2-0.3-5.5,2.2-7.4c1.4,11,8.7,12.4,17.9,11.1c2.6-0.4,5.3-0.1,7.9-0.2
		c9.7,0.1,19.3,0,29,0.3c15.4,0.4,29.4,5,42.1,13.7c1.2,0.8,2.2,2,3.3,3.1c-16.4,0.1-32.9,0.2-49.4,0.2c-3,0-6,0-8.8,0.9
		c-0.5-4.5,2.8-3.8,5.2-3.6c13,0.7,26,0.2,38.9,0.3c0.7,0,1.3,0,2.3-0.5c-6.1-3.7-12.5-6.3-18.8-9.1c-2.1-0.9-4.3-0.4-6.2,0.7
		c-3.5,1.9-7.2,2.1-11.1,1.9c-7.8-0.4-15.6,0-23.5-0.2c-2.5-0.1-5.7,0.4-5.9-3.6c-0.1-1.5-1.3-1.3-2.2-1.3
		c-5.3,0.3-10.7-1.1-15.8,1.3c-0.4,0.2-0.9,0.4-1.4,0.4c-14.5,0.7-28.9,2.7-43.4,2.2c-2.9-0.1-5.6-0.5-8-2.3
		c-1.8-1.4-3.9-1.7-6.1-1.7c-13.5,0-27,0-40.4,0c-2,0-4,0.4-5.9,0.8c-2.6,0.5-5.3,0.6-7.7-1.1c0.5-3.3,3.5-2.6,5.5-3.5
		c8.2-0.5,16.3-0.3,24.5-0.2c9.8,0,19.7-0.3,29.5,0c6.9-0.1,13.9-0.1,20.8,0c1.9,0,4,0.4,5.7-1c4-7,4.2-14.9,5.3-22.6
		c0.8-4.9,1.1-9.9,1.5-14.9c1.4-3.8-0.2-7.9,1.3-11.7c1.5-1.8,3-1,4.5,0c0.4,0.5,0.5,1,0.2,1.5
		C1258.9,153.1,1258.9,153.7,1258.8,154.4c2.2,5.5-3.4,9.5-2.7,14.7c7.1-2.4,8.4-7.9,3.2-13C1258.8,155.5,1258.4,155.1,1258.8,154.4
		z"/>
	<path class="st0" d="M1055.8,120.5c2.8-11.7,8.1-22.2,15.4-31.8c2.3-3,4.5-6.1,6.8-9.1c2.3-1.4,4-3.7,6.9-4.1
		c10.1-6.6,21.3-7.8,32.9-7c1.6,2.1,3.7,2.9,6.3,2.7c4.6-0.6,8.9,1.1,13.1,2.6c4.7,1.7,4.4,6.5,4.4,10.2
		c-0.1,12.6-0.8,25.2,0.6,37.7c0.4,3.5-0.4,7-2.2,10.1c-2,3.3-5.3,3.6-7,0.4c-1.5-2.7-4.7-3.1-6-5.7c-1.4-1.3-1.3-4.1-4.1-3.7
		c-1.5,0.6-2.9,1.2-4.4,1.7c-7.7-2-11.8,3.4-16.5,7.8c-1.9,1.7-4.2,1.7-6.6,1.7c-7.4,0-14.9,0.3-22.3-0.8c-4-0.6-6.9,0.3-6.8,5.3
		c0.1,4-2.1,6.3-6,6.4c-2.9,0.1-5.6,2.2-8.7,0.8c-1.5-6,0.4-11.6,2.3-17.3c1,0.4,0.8,1.8,2.4,2.1
		C1055.5,127,1060.5,123.8,1055.8,120.5z"/>
	<path class="st0" d="M1094.8,256.2c0.7-0.6,1.4-1.2,2-1.8c0.9-0.6,1.8-0.1,2.6,0.3c1.3,0.6,2.7,0.7,3.9,1.6
		c4.8,6.5,12.3,7.5,19.4,8.5c3.1,0.4,6.9,0.3,7.5-4.5c0.1-0.9,0.9-1.4,1.7-1.6c4,0,7.8,1,11.1,3.4c0.9,6.8,5.3,9,11.5,9.2
		c1.8,0,3.5,0.7,5.7,0.8c-0.8-1.6-1.9-3.1-0.5-4.8c7.5,0.2,14.3,3.5,21.6,4.8c14,4.3,28,8.3,42,12.6c1.8,0.6,4.6,0.8,4.4,3.2
		c-0.1,2-2.8,2-4.4,2.6c-13.4,4.3-27.1,8-40.6,12.2c-1.1,0.3-2.2,0.6-3.4,0.5c-20.7-6.8-40.3-16-58.6-27.8c-7.1-5.1-14-10.3-20.7-16
		c-1.1-0.9-0.4,1.3-1.3,1.3C1096.5,260,1096.1,257.7,1094.8,256.2z"/>
	<path class="st21" d="M1176.8,104.2c2.3-2,6.4,1,8.2-2.8c0.6-1.2-0.2-3.4,2.2-3.6c9.9,3.3,19.5,7.7,30.1,8.7
		c3.1,0.9,6.2,0.4,9.4,0.5c2.1,0.1,4.4,0,5.4,2.5c-0.1,1.9-1.9,2.4-2.9,3.5c-0.8,0.6-1.7,1.1-2.6,1.3c-5.9,1.4-5.9,1.4-4.6,7.5
		c-0.2,4.1,2,8.1,0.4,12.2c-0.9,0.8-1.9,0.2-1.8-0.5c0.4-2.3-0.4-0.9-1.4-0.8c-3.5,0.3-7,0.2-10.3-1.2c-6-2.5-12.2-4.2-18.8-4.6
		c-0.5,0-1,0-1.5-0.1c-3.5-1.7-7.7-1.1-11-3.5C1174,117.2,1173.8,110.8,1176.8,104.2z"/>
	<path class="st22" d="M1043,258.1c-2.1-11.6,4.3-19.7,11.6-27.1c6.2-6.3,4.4-7.1,10.6,0.5c3.9,4.8,6.8,10.2,8.1,16.4
		c1.4,6.8,0.1,12.8-5,17.8c-1.6,0.5-3.3,1.1-4.4-0.7c-1-1.6-1.1-3.1,1-4.1c0.8-0.4,1-0.9,0.3-1.4c-2.3-1.6-2.5-4.5-4.2-7.5
		c0,4.2,1.4,7.2,2.1,10.3c0.8,3.4,0,5.4-3,6.8c-0.9,0.4-1.9,0.4-2.9,0.2c-1.2-0.3-2.3-0.7-3.5-1.1C1049,265.9,1044.2,264,1043,258.1
		z"/>
	<path class="st23" d="M1170.7,103.7c0.8-0.2,1.6-0.2,2.1,0.7c3.3,5.1,3.6,10.7,0.8,14.6c-1.2,0.5-2.3,1.3-3.5,1.8
		c-2.5,1-4.8,0.4-6.1-1.8c-1.7-2.9,1.2-3.5,2.9-4.7c-1.5-0.9-3.1-1-4.7-1.5c-6-2.2-6.5-1.7-7,4.8c-0.7,9.3,1.3,18.5,1,27.8
		c-0.1,2.7,0,5.3-1,7.8c-1.3,3.4-3.3,4.6-6.2,1.5c-1-3.8-0.6-7.6-0.5-11.4c0.2-18.6-0.6-37.1,0.4-55.7c1.4-2.7,3.7-2.6,6-1.7
		c2.5,1,2.3,3.4,2,5.6c-0.4,2.9-1.8,5.7-1.4,8.8c0.3,2.5,1.3,4.4,4.1,3.2C1163.4,101.9,1167,104.8,1170.7,103.7z"/>
	<path class="st24" d="M1072.8,268.2c1.2-1.9,3.2-2.8,5.1-3.9c1,0.3,1.5,1.1,1.6,2.2c0.1,1.6-1.9,2.6-1.4,4.4
		c3.7-0.2,3.7-0.2,3.5-4.9c1.1-1.4,2.2-0.6,2.9,0.2c3.2,4,8.5,3.9,12.2,6.9c2.2-2.8-0.5-6.7,2.7-8.9c3.1,2.4,2,5.8,1.8,8.7
		c-0.6,7.5-2,14.8-8.5,19.8c-1.7,1.3-3.6,2.3-5.8,2.5c-5.7-1.4-10.3-5.6-16.6-5.7c-2.7,0-2-3.3-0.2-5c2.4-2.3,5.6-3.5,7.9-5.9
		C1073.4,278,1072.1,275.5,1072.8,268.2z"/>
	<path class="st25" d="M1033.8,290.4c-8.1-4.9-10.5-13.6-13.8-21.6c-0.2-0.5-0.2-1-0.4-1.4c-2.2-7.3-2-7.6,5.9-6.7
		c4.8,0.5,9.5,1.2,14.1,2.8c5.1,0.6,8.9,2.9,10.8,7.9c-0.1,1.9-1.3,3.4-2.3,4.9c-2,2.8-5.5,2.4-5.9-0.1c-0.9-5.4-6.3-5.1-8.3-8.9
		c-3.6,4.8-1.7,9.6-1.7,14.3c0,2.5,2.2,2.4,4,2.9c3.7,0.9,7.8,1.5,7.6,6.8c-0.2,0.3-0.4,0.4-0.7,0.3c-0.4,0.2-1.2,0.5-1.4,0.3
		C1039.6,288.5,1036.7,289.3,1033.8,290.4z"/>
	<path class="st26" d="M1072.8,268.2c0.3,0.8,0.8,1.5,0.9,2.3c1.3,6.9,1.3,6.9,7.8,6.4c-3.3,3.2-6.8,5.8-10.6,8.1
		c-1,0.6-2.1,1.4-1.6,2.8c0.5,1.4,1.6,1.2,2.9,1c5.7-1.1,9.3,3.1,13.7,5.4c-0.3,0.5-0.7,0.8-1.2,1.1c-3.6,1-7.3,0-10.8,0.8
		c-2.4,0.9-5.9-1.5-7.3,2.4c-0.4,0.8-0.9,1.7-1.7,2.2c-0.5,0.1-1-0.1-1.3-0.4c-1.5-2.3,0.5-4.9-0.6-7.2c-0.1-0.5-0.2-1-0.3-1.5
		c-0.2-3.7-0.3-7.4,0.1-11.1c0.5-2.2-0.1-4.3-0.1-6.5c0.6-2.6-1.9-3.6-2.8-5.5c2.8-2,3.1-4.5,1.7-7.6c-1.1-2.5-1.7-5.3-2.5-8
		c-0.4-1.2-0.1-2.4,1.2-2.9c1.3-0.5,1.6,0.8,2.1,1.6c1.6,2.9,1.6,6.7,5.3,8.2c0.1,0,1.5,1.9-0.3,2.2c-1.3,0.2-3.3-1.5-3.3,1.1
		c0,2.5,2.4,2.2,4.2,2.4c-3.5,2.2-3.1,5.4-2.3,8.7c3.5,1.9,3.2-1.2,3.8-3C1070.4,269.9,1071.5,269,1072.8,268.2z"/>
	<path class="st25" d="M1043.8,291.2c-1.7-4.4-5.2-5.8-9.5-5.7c-2.6,0-3.6-1-3.5-3.5c0.2-5-1.3-10,0.8-14.9c0.2-0.5-0.1-1.3,0.8-1.5
		c1.3-0.2,2.4,0.1,3,1.2c1.3,2.2,2.6,4.2,5.9,3.3c0.9-0.2,2.6,0.9,1.5,2.3c-2,2.6-0.1,3.8,1.6,4.7c2.3,1.2,2.6-1.2,3.4-2.5
		c0.7-1.1,1.4-2.2,2.1-3.4c3.6,1,4.4,3.8,4.3,7c0.6,0.7-3,0-0.5,1.5c1,0.6,1.7,1.5,1,2.8C1050.6,284.7,1048.6,289.7,1043.8,291.2z"
		/>
	<path class="st21" d="M1170.7,103.7c-4.6,1.7-9.9-0.5-14.4,2.3c-1.1,0.7-1.2-1-1.6-1.9c-1.3-3.6-1-7.1,0.2-10.7
		c2.1-6.2,1.5-6.8-5-6.9c-2.2-2.4-1.4-5.1-1-7.8c0.2-0.5,0.6-0.9,1.1-1.2c3.3,1,6.5,2.4,9.5,4.1c1.4,0.8,2.8,2.5,4.4,1.4
		c1.6-1,0.6-3.1,0.8-4.7c0.1-1.1,0-2.2,0.9-3.3c0,7.7,0.2,15.4-0.1,23.1C1165.6,102,1166.8,103.9,1170.7,103.7z"/>
	<path class="st25" d="M1078.9,266.4c-0.3-0.7-0.7-1.4-1-2.1c5.1-3.9,10.9-6.4,17-8.1c3.4-0.6,2.7,2.6,3.8,4.1
		c1.4,1.2,1.4,2.5,0.3,3.9c0,1.2-0.1,2.3-0.1,3.5c0,7.3,0.2,6.5-6.5,4.4c-4.1-1.3-6.8-4.2-10.5-5.7
		C1080.8,267.2,1079.9,267.2,1078.9,266.4z"/>
	<path class="st27" d="M1171.6,61.6c-7.2,0-14.5,0-21.7-0.1c-0.4,0.3-0.9,0.6-1.4,0.8c-0.5,0.2-1.1,0.3-1.6,0.3
		c-0.6,0.1-1.1,0.1-1.7,0.1c-6.7,0-13.3,0.2-20-0.1c-0.9-0.1-1.8-0.5-2.6-0.8c-0.6-0.1-1.2-0.3-1.8-0.6c-2.3-3.5-1.9-4.6,2-4.8
		c4.8-0.2,9.6-0.1,14.4-0.1c11.6,0,23.2,0,34.8,0c1.9,0,4-0.4,5.7,1c0.9,3.5-0.8,4.3-3.9,4C1173.2,62.1,1172.4,62.1,1171.6,61.6z"/>
	<path class="st0" d="M1051.5,145.6c3.1-1.1,5.9-2.5,9.4-2.2c2.7,0.2,3.9-1.6,4-4.5c0.2-7.5,0.4-8,7.8-7.2
		c7.9,0.8,15.8,0.8,23.7,0.9c2,0,4,0.2,5.1-2c1.8,1.4,1.6,3,0.6,4.7c-6.6,0.4-13.1-0.8-19.7-0.3c-2.1,0.2-4.4-0.4-5.9,1.7
		c-1.4,1.2-3.4,1-4.9,1.7c-2.9,1.7-2.8,4-1.7,6.7c0.5,1.1,1.6,2.1,1.1,3.6c-0.4,0.4-0.9,0.7-1.4,0.9c-6.6,0.1-13.3,1.7-19.8-1
		C1049.8,147.1,1050.9,146.5,1051.5,145.6z"/>
	<path class="st16" d="M1248.5,76.7c0.7-0.3,1.8-0.3,1.6-1.5c-0.8-4.3,1.3-7.4,5-8.5c4.4-1.3,8.5,0.7,11.3,4.2
		c2.2,2.8,4.3,6.2-0.2,9.3c-0.5,0.3-0.3,1.5-0.5,2.3c-0.9,0.1-1.5-0.3-2-0.9c-1.9-1.9-4.4-1.8-6.9-2c-2.1-0.1-4.3,0.4-6.1-1.3
		C1250,77.9,1249.3,77.3,1248.5,76.7z"/>
	<path class="st28" d="M1063.8,300.1c0.4,0,0.8,0.1,1.3,0.1c5.1-1.9,10.3-1.5,15.5-0.4c1.8,1.6,1.2,3.4,0.3,5.2
		c-0.4,0.5-0.8,0.9-1.4,1.2c-10.9,1.2-21.8,0.4-32.7,0.5c-2.2,0-2.8-1.8-3.9-3.1c-1.2-2.1-1.2-3.3,1.8-3.2c4.7,0.1,9.5,0,14.3-0.1
		c0.9-0.6,1.8-1,2.9-0.9C1062.4,299.3,1063.1,299.6,1063.8,300.1z"/>
	<path class="st29" d="M1264.7,81.6c0.3,0.4,0.7,0.7,1,1.1c3.6,2.1,0.5,4.3-0.3,5.8c-0.9,1.7-2.8,3.9-5.5,2.5
		c-0.9-0.5-1.8-0.7-2.7-0.7c-2.8-0.5-5.4,2.3-8.2,0.2c-1-3.4,1.3-6.7,0.2-10.1C1254.5,78.2,1259.7,79.4,1264.7,81.6z"/>
	<path class="st30" d="M1059.1,198.6c2.3,1.8,2.9,5.3,5.8,6.5c1.9,1.7,3.7,3.5,4.1,6.3c0.4,2.7,2.5,4.4,3.9,6.5
		c0.9,3,4.1,4.8,4.4,8.1c-1.1,2.1,2.3,4.6-0.6,6.5c-8.8-10.4-15.4-22.1-19.8-35C1058.2,196.9,1058.4,198.1,1059.1,198.6z"/>
	<path class="st31" d="M1181.9,98.9c-4.5,4.1-10.6,3.5-14.2-1.4c-0.3-5.6-1.2-11.2,0.4-16.8c1.8,0.6,3.7,1.2,5.5,1.8
		c0.2,0.2,0.4,0.3,0.6,0.5c0.3,0.4,0.5,0.9,0.6,1.5c0.7,3.5-0.3,7.1,0.8,10.5c1.6,2.3,4.8,0.4,6.4,2.5
		C1182.2,98,1182.2,98.4,1181.9,98.9z"/>
	<path class="st32" d="M1076.7,232.5c1-2-2.8-4.4,0.5-6.3c0.2,0,0.5,0,0.7,0.1c3.9,3.2,6.2,7.6,9,11.6c1.3,2.7,3.2,5.1,5,7.4l0,0
		c1.3,2.7,5.3,4,4.1,7.9C1088.5,247.4,1082,240.5,1076.7,232.5z"/>
	<path class="st33" d="M1177.8,57.6c-18.1,0-36.2-0.1-54.3-0.1c-1.2,0-2.8-0.6-3.5,1.1c-0.5,1.5,1.1,1.8,1.7,2.7
		c-3.9,0.5-3.9,0.5-3-4.8l0,0c4.1-1.2,8.2-0.4,12.3-0.5c13.9-0.1,27.8-0.1,41.8,0c1.6,0,3.3-0.4,4.9,0.5
		C1177.8,56.9,1177.8,57.2,1177.8,57.6z"/>
	<path class="st34" d="M1173,118.7c3.1-2.8,2.5-6.3,0.9-9.3c-1-1.8-0.9-3.3-1.1-5c1.4-0.1,2.7-0.1,4.1-0.2c1.4,1.2,1.3,2.8,0.5,4
		c-2.3,3.7-2.1,7.1-0.1,10.8c0.6,1.2,0.3,2.9,0.4,4.3c-1.1,2.4-2.8,2.3-4.8,1.4c-0.4-0.4-0.7-0.8-0.9-1.4
		C1171.6,121.7,1171.4,120,1173,118.7z"/>
	<path class="st35" d="M1047.9,336.3c-8.6,0-17.3,0-25.9-0.1c6.1-2,12.4-0.6,18.6-0.9c6.3-0.3,6.3,0,5.3-6.5
		c-1.1-7.2-2-14.5-2.9-21.7c0.5-0.2,1-0.1,1.4,0.3c0.8,1.1,1.2,2.3,1.5,3.5c1.5,7.8,2.9,15.5,3.5,23.4
		C1049.3,335.5,1048.6,335.9,1047.9,336.3z"/>
	<path class="st36" d="M1249,90.6c2.7,0.2,5.4-2.7,8.2-0.2c-1.8,1.3,0.9,1.4,0.6,2.3c1.2,0.9-2.3,1.6-0.2,2.6
		c0.8,2.6-1.3,3.2-2.8,4.2c-0.3,0-0.7,0-1,0C1251.3,96.9,1248,94.9,1249,90.6z"/>
	<path class="st0" d="M1055.8,120.5c3.2-1.4,4.5-0.4,3.5,3c-0.5,1.7-1.4,3.3-1.5,5.2c-0.2,1.7-0.5,4.3-2.6,4c-2-0.2-1-2.8-1.3-4.3
		C1053.7,125.5,1054.2,122.8,1055.8,120.5z"/>
	<path class="st37" d="M1054,278.4c4.3,5.3,6.6,11.3,6.1,19.3c2.2-2.2,1.9-4.8,3.7-5.9c0.1,0.6,0.2,1.2,0.3,1.8c0,2.4-0.6,4.6-2,6.5
		c-1.1,0-2.1,0-3.2,0c0.1-6.2-0.8-12.2-3.9-17.8C1052.7,279.2,1052.7,279.2,1054,278.4z"/>
	<path class="st38" d="M1043.7,307.2l-0.4,0.1c0,0-0.4,0-0.4,0c-0.1-1.3-0.2-2.5-0.2-3.8c1.7,1.9,3.9,1.9,6.2,1.9
		c10.3-0.1,20.6-0.1,31-0.1c0.2,0.7,0.1,1.2-0.6,1.6C1067.5,308.4,1055.6,308,1043.7,307.2z"/>
	<path class="st39" d="M1122.8,62.5c0.1-0.3,0.1-0.6-0.1-0.9c0.8,0,1.6,0.1,2.4,0.1c1.6,2.3,1.1,4.8,0.8,7.2
		c-0.3,1.9-1.7,2.7-3.2,3.5c-2.9,0.2-4.8-0.7-4.9-4C1123,69.9,1123.3,69.5,1122.8,62.5z"/>
	<path class="st0" d="M1049.8,148.4c6.9,0,13.9,0,20.8,0c-0.2,2.9-2.6,1.9-4.2,2.5c-6.5,0.2-13-0.1-19.5,0c-2.9,0.1-5.7,0.2-8.2-1.5
		c-0.4-0.3-0.7-0.7-1.1-1C1041.7,148.4,1045.8,148.4,1049.8,148.4z"/>
	<path class="st40" d="M1264.7,81.6c-5.2-0.4-10.3-0.8-15.5-1.1c0.5-0.6,1-1.3,1.5-1.9c2.9,0,5.8-0.2,8.7,0.1
		C1261.5,78.8,1264.2,78.4,1264.7,81.6z"/>
	<path class="st25" d="M1033.8,290.4c3.8-6,6.4-1.4,9.3,1.1C1039.8,292.9,1036.7,292.7,1033.8,290.4z"/>
	<path class="st41" d="M1181.9,98.9c-0.1-0.5-0.2-1.1-0.3-1.6c-1.1-1.2-1.3-2.7-1.1-4.2c0.7-5.5-0.3-9.7-6.7-10.6c0,0-0.1,0-0.1,0
		c1.7-1.7,4.2-1,6.1-2c2.2-0.9,3.6-0.5,3.5,2.2c-0.1,5,0.4,10-0.3,14.9C1182.7,98,1182.3,98.4,1181.9,98.9z"/>
	<path class="st42" d="M1171.6,61.6c0.8,0,1.5,0,2.3,0c-0.5,4-0.8,8,3,10.9c-1,0.7-2.1,0.7-3.1,0
		C1170.4,69.4,1172.2,65.3,1171.6,61.6z"/>
	<path class="st43" d="M1183,97.5c-0.1-4.7-0.3-9.4-0.1-14.2c0.1-2.6-1.1-3-3.2-3c1.8-1.2,3.9-1.6,3.9,1.1
		C1183.7,86.8,1184.8,92.3,1183,97.5z"/>
	<path class="st44" d="M1069.8,271.3c0.4,1.4,3.1,2.8,0,4.2c-1.5,0.7-3.5,2.2-3.8-1.2C1067.8,274,1068.5,272.2,1069.8,271.3z"/>
	<path class="st45" d="M1096,253.3c-0.6-3-4.1-4.6-4.1-7.9c0.6,0.4,1.2,0.8,1.8,1.1c3.1,1.6,4.5,4.6,5.7,7.6c0,0.2-0.1,0.5-0.1,0.7
		c-0.1,0.2-0.3,0.4-0.4,0.6c-0.7-0.3-1.4-0.6-2.1-0.9C1096.6,254.1,1096.3,253.7,1096,253.3z"/>
	<path class="st46" d="M1148.8,61.5c0.4,0,0.8,0.1,1.2,0.1c-0.2,5.3-0.5,10.6,0.1,15.9c0,0-0.5,0-0.5,0c-0.7,0.1-1.2-0.1-1.5-0.8
		C1147.3,71.6,1146.5,66.5,1148.8,61.5z"/>
	<path class="st47" d="M1031.9,151.3c-1.8,2.6-1.4,5.2-0.3,7.8c-2.8-0.3-2.8-2.5-2.7-4.4C1029,153,1029.2,150.9,1031.9,151.3z"/>
	<path class="st48" d="M1039.3,171.4c3.6,1,4.2,4.6,6.1,7.1C1041.8,177.4,1041.2,173.9,1039.3,171.4z"/>
	<path class="st49" d="M1059.1,198.6c-0.7-0.4-1.4-0.8-2.1-1.1c-1.2-2-2.4-4.1-3.6-6.1C1056.9,192.5,1057.8,195.7,1059.1,198.6z"/>
	<path class="st50" d="M1046.4,181.4c3.6,1,4.1,4.6,6,7.1C1048.8,187.5,1048.2,183.9,1046.4,181.4z"/>
	<path class="st51" d="M1173.8,72.5c1,0,2.1,0,3.1,0c-3,2.1-6.1,0.6-10.2,1C1169.6,71.9,1171.7,72.7,1173.8,72.5z"/>
	<path class="st52" d="M1038.7,149.4c2.7,0.1,5.5,0.2,8.2,0.3c1.1,0.5,2.2,0.9,2.8,2c0.9,1.6,1.8,3.2,2.4,4.9
		c2.3,5.8,6,6.8,11.4,2.7c1.2-0.6,2.3-0.1,3.5,0.3c1.9,0.8,4.3,0.8,5.3,3.2c0.1,0.4,0.1,0.9,0,1.3c2.5,6.6,7.4,11.5,11.6,16.9
		c0.3,0.4,0.4,0.8,0.6,1.3c0.4,3.4,1.8,6.5,2.5,9.8c0.3,1.3,0.7,2.6,0.7,4c0.7,4.6,1.6,9.2,5.5,12.4c1.5,1.2,2.9,2.3,4.9,1.6
		c2.2,0.2,4.3,1.4,6.6,1.1c0.5,0,0.9,0,1.4,0.1c0.7,0.1,1.4,0.4,2,0.8c2,3.2,3.8,6.5,7.4,8.2c0.5,0.6,0.8,1.3,0.7,2.1
		c-0.6,3.8,2.4,2.5,4,2.5c10.7,0,21.3,0,32,0c7.2,0,14.3,0,22.6,0c-3.4-1.2-5.8-1.1-8.3-1.1c-12,0-24,0-36,0c-2.3,0-4.7,0.4-6.7-1.4
		c-0.5-0.8-0.4-1.5,0.2-2.2c1.7-0.8,3.7,0,5.4-0.8c1.7-0.3,3.4-0.2,5,0.1c12.1,1.1,24.3,0.2,36.4,0.5c11.3,0.3,17.6,9.3,14.2,20.3
		c-0.8,0.7-1.6,0.7-2.5,0.3c-1-1-1.1-2.4-1.3-3.7c-0.8-6.9-0.8-7-8-7c-15.8,0-31.7,0.3-47.5-0.1c-6.7-0.2-11.6,1.8-15.3,7.3
		c-0.9,1.4-2.2,2.5-3.5,3.5c-1.4,0.5-2.9,0.8-4.2-0.2c-7.2-10-14.4-20-21.6-30.1c-1.5-0.4-2.2-1.4-2.2-2.9
		c-5.8-8.5-11.7-17-17.6-25.4C1054,171.1,1046.3,160.2,1038.7,149.4z"/>
	<path class="st53" d="M1102.9,240.3c1.3,0,2.6,0,3.9,0c2-1.6,4.3-1.5,6.7-1.5c20.9,0,41.8,0,62.7,0c2.3,0,4.7-0.2,6.6,1.5
		c0.7,0,1.4,0,2.1,0c5.1-2.7,10.5-0.7,15.7-1.3c1,0,1.9,0,2.9,0c23.4,0,46.8,0,70.2,0c2.4,0,5-0.6,7.1,1.4c0,0.3,0,0.5,0,0.8
		c-1.3,0.1-2.7,0.2-4,0.2c-56.1,0-112.3,0-168.4,0C1106.6,241.4,1104.4,242.4,1102.9,240.3z"/>
	<path class="st54" d="M1077.9,226.3l-0.3-0.1c0,0-0.4,0-0.3,0c-1-3-4.3-4.8-4.3-8.3C1075,220.5,1077.8,222.6,1077.9,226.3z"/>
	<path class="st55" d="M1091.9,245.4c-2.9-1.7-4.6-4.1-5-7.4C1089,240.1,1091.1,242.3,1091.9,245.4z"/>
	<path class="st56" d="M1308.8,317.4c0,1.7,0.2,3.4,2.3,3.9c4.7,3,4.5,7.3,3.2,11.9c-2.4,1.2-4.6,0.7-6.5-1
		c-0.3-0.6,0.1-1.8,0.1-1.8c-5.7,1.5-3.8-2.1-3.4-4.9c0.3-3-1.5-4.2-4.4-3.2c-4.7,1.6-6.1,5.6-7.3,9.8c-2.4,1.6-4.9,2-7.6,0.7
		c-1.7-1.8-1.4-4-1.2-6.1c0.1-0.5,0.2-1,0.3-1.5c0.4-1.2,0.8-2.3,0.8-3.5c0.1-1.6-1.1-1.9-2.3-1.9c-7.6,0.1-15.2-0.7-22.7,0.5
		c-0.5,0.5-0.6,1.2-0.7,1.9c-0.1,1.8,0,3.5,0.2,5.3c0.4,2,0.9,4-1.1,5.6c-2,1-4.2,0.8-6.4,0.8c-11.9,0.1-23.9-0.1-35.8,0.1
		c-2.9-2.6-2.6-4.3,1.6-5.9c5-1.9,9.7-4.2,13.6-7.9c0.7-0.6,1.3-1.5,1.8-2.3c0.3-0.5,0.6-0.8,1-1.1c0.9-0.6,2-1,3.1-1
		c7.1,0.8,14.2,0.3,21.2,0.4c14.6,0,29.2,0,43.7,0C1304.4,316,1306.9,315.5,1308.8,317.4z"/>
	<path class="st57" d="M1276.9,278.2c1.1,0.1,2.4,0,2.7,1.6c0.9,6.2,3.1,12.2,3.2,18.5c-3.7-1-7.4-1.9-11-2.9c-2.7,1.6-5-0.1-7.4-1
		c-0.8-0.4-1.7-0.9-2.5-1.4c-0.4-0.3-0.7-0.6-1-0.9c-1.3-1.9-0.6-3.6,0.9-4.7c2.1-1.6,2.3-3.6,1.8-5.9c1.5-1.9,3.8-2.1,6-2.6
		C1272.1,278.9,1274.3,276.9,1276.9,278.2z"/>
	<path class="st58" d="M1286.7,313.3c-1.9-2.7-2.1-5.7-2-8.8c8.1,2.3,16.2,4.7,24.2,7c0.6,1.4-0.1,2.5-1.3,2.6
		C1300.6,314.7,1293.5,316.1,1286.7,313.3z"/>
	<path class="st59" d="M1276.8,302.3c-5.6,1.6-11.1,3.9-17.1,3.9c-2-4.8-1.3-6.6,3.6-8.9c2.4-0.1,4.6,0.1,6.3,2.1
		C1272.1,300.4,1274.5,301.3,1276.8,302.3z"/>
	<path class="st60" d="M1308.8,317.4c-17,0-34,0-51-0.1c-0.3-0.7-0.1-1.2,0.7-1.4c9.5-0.2,19,0.2,28.5-0.2c11.6-0.9,23.2-2,34.8,0.7
		C1317.5,318.6,1313.1,316.8,1308.8,317.4z"/>
	<path class="st61" d="M1321.7,316.5c-11.6-0.1-23.3-0.2-34.9-0.2c-0.3-0.2-0.4-0.4-0.3-0.5c0.1-0.2,0.2-0.2,0.3-0.2l0-0.2
		c4.9-1.9,10-0.5,15-0.9c2.1-0.2,4.2,0,6.4-0.1c3.8-1,7.6,0.7,11.5,0.2C1320.8,314.7,1322.6,314.1,1321.7,316.5z"/>
	<path class="st62" d="M1269.7,299.4c-2-0.3-3.9-0.7-5.9-1c-0.5-0.8-1.8-0.2-2.2-1.2c0.9-1.3,0.1-3.6,2.5-3.9
		c2.6,0.7,5.2,1.5,7.7,2.2C1270.2,296.3,1272.5,299.3,1269.7,299.4z"/>
	<path class="st63" d="M1312.7,334.6c8.6,1.3,17.2,1.3,25.9,0c1.2-0.2,1.4,0.6,1.5,1.5c-9.4,0-18.9,0.1-28.3,0.1
		c-0.3-0.3-0.4-0.7-0.4-1.1C1311.6,334.6,1311.9,334.1,1312.7,334.6z"/>
	<path class="st64" d="M1286.7,313.3c6.1,0,12.2,0.1,18.3,0c1.5,0,3.5,0.6,3.9-1.8c1.1-0.2,2.1-0.1,2.9,0.8
		c-0.8,1.9-2.2,2.6-4.1,2.5c-6.9-0.3-13.9,0.7-20.8-0.5C1286.8,314,1286.8,313.7,1286.7,313.3z"/>
	<path class="st65" d="M1329.8,319.4c-6.3,0-12.5,0.1-18.8,0.1c1.6-2.2,4-1.2,5.9-1.1C1321.2,318.8,1325.6,317.2,1329.8,319.4z"/>
	<path class="st66" d="M1339.7,315.4c3.6-0.5,7.4,1.1,10.9-0.9c0.9,0.5,1.1,1.6,0.1,1.6C1347.1,316.2,1343.3,317.1,1339.7,315.4z"/>
	<path class="st3" d="M1326.8,263.6c-0.1,2.1,1.2,4,0.1,6.3c-1,2-1.3,4.1-4.5,2.9c-2.7-1-3.5,0.8-3.6,3.2c-0.2,5.3-2.9,8.1-8.4,8.4
		c-2.3,0.1-4.4,0.1-4.7,3.1c-1.7-5.5-2-11.3-2.8-16.9c0.8-1.7,2.4-2.3,4-2.7c5.3-1.5,10.4-3.3,15.7-4.6
		C1324,262.9,1325.5,262.2,1326.8,263.6z"/>
	<path class="st67" d="M1326.8,263.6c-7.9,2.3-15.9,4.6-23.8,6.9c-2.4,0.6-4.8,1.2-7.1,1.9c-3.2,1-5.4,0.7-4.7-3.5
		c2.6-3.5,7-3,10.4-4.6c9.2-2,17.8-6,27.2-7.2c0.7-0.1,1.3-0.2,1.9,0.2c4.4-0.9,8.9-1.2,13.4-0.8c0.1,2.4-1.9,2.3-3.3,2.8
		C1336.1,260.8,1331.4,262.2,1326.8,263.6z"/>
	<path class="st68" d="M1291.8,268.6c-0.5,3.2,1.1,4.2,4,3.8c-6.3,1.9-12.6,3.9-18.9,5.8c-2.4,0.7-4.8,1.3-7.2,2
		c-1.8-0.9-2.7-2.5-3.2-4.4c2.8-3.3,7.1-2.9,10.7-4.1C1282.1,270.9,1286.5,267.5,1291.8,268.6z"/>
	<path class="st69" d="M1265.8,101.6c-1.9,3-0.3,6.7-1.9,9.7c-4.6,2.1-7.2,0.7-7.6-4c-0.2-2.2,0.7-4.5-0.5-6.6
		c-0.2-0.3-0.4-0.6-0.7-0.8c2.8,0.1,5.6,0.2,7.8-2c0.4-0.8,0.6-2,1.9-1.1C1265.2,98.3,1265.5,99.9,1265.8,101.6z"/>
	<path class="st70" d="M1257.7,95.1c-1.5,0.3-3,0.8-4.5-0.4c1.1-2,3.6-0.5,4.6-2.2C1259.7,93.5,1258.1,94.3,1257.7,95.1z"/>
	<path class="st36" d="M1264.8,96.6c-0.6,0.4-1.3,0.8-1.9,1.1c-0.3-1.7,0.9-3,1.4-4.5c1-3.2,1.6,0.3,2.4,0.2
		C1266.1,94.5,1265.5,95.6,1264.8,96.6z"/>
	<path class="st62" d="M1266.7,276.4c2.6,0.1,1.9,2.6,3,3.8c-2,0.7-4,1.5-5.9,2.2c-0.8,1.4-2.3,1.8-3.7,2.2c-3,0.7-6,1.3-9.3,3
		c3,1.4,6,1.7,8.7,3.1c0.7,0.5,1.3,1.3,2.3,1.4l-0.1,0.3c0.1,1.9,0,3.6-1.8,4.8c-6.6,0.6-12.1-3.2-18.3-4.4
		c-2.6-0.5-5.1-1.5-7.8-0.4c-14.6,4.2-29,8.9-43.6,12.8c-8.4,2.6-16.7,5.1-25.1,7.7c-1.3,0.4-3.6-0.1-3.6,2.4
		c0.4,0.3,0.8,0.5,1.3,0.6c21.3,0.2,42.6,0,63.9,0.1c2.4,0,5.1-0.6,7.1,1.5c0,0.4-0.1,0.7-0.1,1.1c-2.2,1.5-4.8,1.2-7.3,1.2
		c-19,0-38,0-57,0c-2,0-4-0.4-5.9,0.6c-1.6,1.1-1.4,2.8-1.7,4.4c-1.2,4.9-3.6,8.7-8.6,10.4c-1,0.1-1.9,0.4-2.7,1
		c-2.2,0-4.5,0.1-6.7,0.1c-0.9-0.8-2-0.9-3.1-1c-3.9-1.6-6.6-4.5-7.7-8.5c-1-3.3-2.2-5.9-6.1-6c-3.8,0-2.3,3.8-3.8,5.5
		c-1.1-1.4-3.2,1.1-4.1-1c-0.6-2.8-0.8-5.6-1.1-8.4c0.2-1.6,0.7-3.1,2.5-3.7c1.1,0.1,1.8,0.7,2.7,1.3c3.7,1,7.4,1.5,10.9-0.5
		c4.7-6,10.8-7.6,18.2-6.4c7.2,1.1,13.5-3.1,20.2-4.5c2.1-0.4,4-1.7,6.3-0.7c16.1-4.7,32.2-9.4,49.8-14.6
		c-16.8-5.1-32.3-9.7-47.7-14.4c-1-3.8,2-3.8,4.2-4.5c16.6,2.8,32.1,9.5,48.3,13.6c1,0.3,1.9,0.6,3,0.6c8.7-0.8,16.7-4.8,25.2-6.4
		C1263.2,276.2,1264.9,275.1,1266.7,276.4z"/>
	<path class="st71" d="M1119.7,325.2c0.8,0.9,2.6-0.6,3.1,1.2c0.9,5.3-3.3,6.8-6.7,8.9c-0.9,0.1-1.7,0.5-2.5,0.9
		c-2.5,0.5-5,0.5-7.5,0c-0.9-0.5-1.9-0.8-2.8-1c-8.2-4.8-10.8-12.9-6.6-20.1c4.6-7.8,13.8-10.5,20.9-6c1.5,1,3.8,1.7,3.2,4.4
		c-0.6,1.1-1.3,2.1-1.9,3.2c-3.3-0.3-5.5-3.4-9.2-3.1c-4.2,0.4-6.9,2.3-8.1,6.1c-1.3,4.2,0.7,7.4,4.1,9.9c3.4,2.5,6.5,1.4,9.6-0.8
		C1116.7,327.5,1117.4,325.3,1119.7,325.2z"/>
	<path class="st72" d="M1150.6,336.2c0.2-0.8,0.3-1.7,1.5-1.5c20.8-1.6,41.6-0.8,62.3-0.5c0.8,0.2,1.8-0.5,2.5,0.4
		c0.3,0.6,0.3,1.1-0.1,1.7C1194.8,336.2,1172.7,336.2,1150.6,336.2z"/>
	<path class="st73" d="M1216.9,336.3c-0.1-0.2,0-0.5,0-0.7c0.7-0.8,1.6-1.4,2.6-1.4c12.1-0.1,24.2-1,36.3,0.5
		c0.6,0.3,0.9,0.9,0.9,1.6C1243.4,336.2,1230.1,336.2,1216.9,336.3z"/>
	<path class="st74" d="M1113.6,336.1c0.1-0.9,0.4-1.6,1.5-1.5c8.9-1.2,17.7-1,26.6-0.1c1.4-0.3,2.1,0.4,2.3,1.7
		C1133.8,336.2,1123.7,336.2,1113.6,336.1z"/>
	<path class="st75" d="M1104.6,334.6c1.1-0.1,1.3,0.6,1.5,1.5c-9.7,0.1-19.5,0.2-29.2,0.3c-0.4-0.1-0.8-0.2-1.2-0.3
		c0.1-0.6,0.4-1.1,1-1.5C1085.9,333.1,1095.3,333.7,1104.6,334.6z"/>
	<path class="st76" d="M1256.6,336.2c0-0.2-0.1-0.5-0.2-0.7c0.3-0.5,0.8-0.9,1.4-1.1c8.9-1,17.9-0.1,26.8-0.6
		c0.9-0.1,1.7-0.1,2.3,0.6c0.3,0.5,0.3,1,0.1,1.6c-0.4,0.1-0.8,0.2-1.2,0.3C1276.1,336.3,1266.4,336.3,1256.6,336.2z"/>
	<path class="st77" d="M1291.8,268.6c-4.6,1.3-9.1,3.2-14,3.7c-2.8-4.9-4.1-10-3-15.7c8.7,0,17.4,0,26,0c1.6,2.8,2.5,5.6,1.1,8.8
		C1298.5,266.4,1295.2,267.5,1291.8,268.6z"/>
	<path class="st78" d="M1274.8,256.6c1,5.2,2,10.5,3,15.7c-3.3,2.3-7.6,2.1-11.1,4.1c-1.7,0.4-3.4,0.9-5.1,1.3
		c-1.4,0.3-2.2-0.2-2.3-1.6c0.3-5.5,0.1-10.9,0.1-16.4c0-1.1-0.2-2.2,0.5-3.2C1264.9,256.6,1269.8,256.6,1274.8,256.6z"/>
	<path class="st79" d="M1260,276.4c0,1.1,1,1.1,1.7,1.3c-6.9,2-13.8,4-20.7,6.1c-1.8,0.5-3.5,0.6-5.3,0.3
		c-2.3-5.6-0.9-11.4-0.9-17.1c1.4-3.3,0.1-6.9,1.5-10.2c0.2-0.2,0.4-0.4,0.6-0.6c7.7,0.1,15.4,0.2,23.1,0.2c0.3,0.6,0.6,1.3,0.9,1.9
		C1259.5,264.4,1261,270.4,1260,276.4z"/>
	<path class="st3" d="M1301.9,265.3c-0.4-2.9-0.7-5.9-1.1-8.8c9.1,0,18.1-0.1,27.2-0.1c1,0,2-0.1,2.6,0.9
		C1321,260,1311.5,262.7,1301.9,265.3z"/>
	<path class="st80" d="M1102.8,256.6c-1.3-0.6-3.1,0.6-3.9-1.2c0,0,0.1-0.2,0.1-0.2c3.5-0.5,7-0.2,10.4-0.2c40.7,0,81.4,0,122,0
		c1.8,0,3.7-0.6,5.3,0.6c0,0.3,0,0.5,0,0.8c0,0,0.1,0.3,0.1,0.3c-0.5,0.4-1.1,0.7-1.7,0.9c-2.4,0.7-4.9,0.5-7.4,0.5
		c-26.2-0.1-52.4,0.2-78.6-0.1c-1.5,0-3-0.1-4.4,0.4c-4.8,0.4-9.7-1.4-14.5,0.6c-6.7-1.5-13.5-0.7-20.2-0.9
		C1107.6,257.8,1105,258.2,1102.8,256.6z"/>
	<path class="st81" d="M1133.8,220.4c-1.6,0-3.3,0-4.9,0c-2.6-2.3,0.6-3.1,1.1-4.7c1.3-1.5,3-2.3,4.8-3c0.5-0.1,0.9-0.2,1.4-0.2
		c2.2,0.2,4.1,0.8,5.8-2c1.9-3,6-3.2,9.3-3.9c1.8-0.3,3-1.1,4.2-2.3c1.4-0.9,2.9-1.2,4.3,0.1c18.3-1.5,36.7-0.9,55-1
		c2.5,0,4.9-0.1,6.6,2.4c1.1,1.6,3.2,1.6,5,1.6c11.2-0.3,22.4-0.7,33.6-1c1.4,0,2.6-0.3,3.5-1.5c0.5-0.6,1.5-1.5,1.9-1.3
		c8.4,3.2,16.6-2.3,24.9-0.2c1.3,0.3,3.4-0.8,3.9,1.1c0.5,1.8-2.4,1.3-2.7,2.9c0.9,1.2,2.1,1,3.2,1.1c9.9,0.4,19.9-0.7,29.9,0.6
		c2.7,0.4,5-1.7,7.2-2.9c2.2-1.2,4.3-1.2,6.1-0.3c7.3,3.4,14.6,7.1,22.1,10.9c-1.6,2-3.6,1.8-5.5,1.8c-12,0-24,0-35.9,0
		c-1.5,0-2.9-0.4-4.4-0.6c-2.2-0.3-4,0.1-4.6,2.6c-0.7,0.4-1.3,0.8-2,1.1c-5.3,5.2-5.2,12.4-7.1,18.9c-4.6,0-9.2,0-13.8,0
		c-1.9-2.4-1.9-5.3-2.1-8.1c-0.3-5.3-2.9-8.6-7.4-10.9c-0.5-0.2-0.9-0.5-1.3-0.8c-1.7-2.2-4.2-1.8-6.4-1.8
		c-14,0.3-27.9-0.7-41.9,0.6c-0.5,0-1,0.1-1.5-0.1c-7-2-13.8-1.1-20.6,0.9c-1.4,0.4-3.4,1.5-4.4-0.7c-0.9-1.9,0.1-3.5,1.5-4.9
		c3.4-3.4,6.9-5.9,10-3.5c-1.8-1.1-5.2-1.7-8.6,1.9c-1.4,1.5-4.1,0.8-6.3,0.8c-4.1,0.1-8.2-0.2-13.1,0.2c2.2,2.1,3.8,3.7,4.6,5.9
		c0.5,1.5,1.6,2,3.2,1.7c1.3-0.2,2.6-0.3,4-0.3c3.9-0.1,6.1,1.4,5.4,5.7c-0.2,1.4,0.1,2.6,0.3,4c-0.1,2.9,0.8,5.8-1.1,8.5
		c-4.1,0.8-8.3,0.1-12.4,0.4c-2.6,0.2-3.4-0.8-3.2-3.5c0.4-5-0.1-10-4.6-13.4c-2.6-2-5.5-2.6-8.8-2.5
		C1159.3,221.1,1146.5,221.3,1133.8,220.4z"/>
	<path class="st82" d="M1371.8,221.5c1.4,1.6,2.7,3.2,4.1,4.8c-1.5,1.8-3.6,1.5-5.6,1.5c-20,0-40,0-60,0c-0.7,0,0.2,0-0.5,0
		c-1.8-0.1-4.4,0.3-4.8-1.6c-0.5-2.3,1.9-3.1,3.8-3.7c2.5-0.9,5.1-1.1,7.8-1C1335,221.5,1353.4,221.5,1371.8,221.5z"/>
	<path class="st83" d="M1308.8,222.4c-1.1,1-2.2,1.9-4.4,3.9c24.6,0,48.1,0,71.5,0c0.3,0,0.6,0.2,0.9,0.3c1.6,0.5,3.4,0.9,0.7,2.7
		c-2.4,0.9-4.9,0.7-7.4,0.7c-18.9,0-37.8,0-56.6,0c-7.9,0-7.9,0-9.4,7.7c-0.2,1-0.5,1.9-1.2,2.7c-0.7,0-1.5,0-2.2,0
		c0.1-2.1,0.2-4.2,0.1-6.3c-0.2-5.6,2.4-9.6,7-12.6C1308.1,221.8,1308.5,222.1,1308.8,222.4z"/>
	<path class="st84" d="M1302.9,240.3c-0.4-11.9-0.4-11.9,11.5-11.9c21.3,0,42.6,0,63.9,0c0.5-0.1,0.9,0,1.3,0.3
		c2.2,2.2,3.8,4.7,5,7.5c0,1.4,0,2.8,0,4.3C1357.4,240.4,1330.1,240.3,1302.9,240.3z"/>
	<path class="st85" d="M1277.8,220.5c7.9,2.6,8,9.5,8.9,15.9c0.2,1.3,0.1,2.6,0.1,4c-0.7,0-1.4,0-2.2,0c-0.4-0.5-0.7-1-1-1.6
		c-1.3-8.8-1.3-8.8-10.6-8.8c-20.1,0-40.2,0-60.3,0c-2.6,0-5.3,0.4-7.8-1.1c-0.8-0.8-0.9-1.6-0.4-2.6c1.9-1.6,4.3-1.3,6.5-1.3
		c21.4-0.1,42.8-0.1,64.2,0c0.6,0,1.2,0.1,1.9,0.1c0.5,0,1.2,0.2,1.3-0.2c0.3-0.8-0.7-0.9-1.1-1.2c-0.6-0.3-1.1-0.6-1.6-1
		c-0.2-0.4-0.3-0.8-0.2-1.2C1276,220.6,1277.2,221.1,1277.8,220.5z"/>
	<path class="st86" d="M1284.6,239.4c0,0.3,0,0.6,0,0.9c-1.3,0-2.6,0.1-3.9,0.1c-26,0-51.9-0.1-77.9-0.1c-0.3-0.7-0.1-1.3,0.6-1.6
		c2.2-1.1,4.5-0.9,6.8-0.9c22.2,0,44.5,0,66.7,0C1279.7,237.8,1282.4,237.4,1284.6,239.4z"/>
	<path class="st87" d="M1287,336.1c0.1-0.2,0.1-0.4,0.2-0.5c0.9-1.2,2.1-1.6,3.5-1.6c5.8-0.3,11.6-0.3,17.4,0
		c1.3,0.1,2.6,0.5,3.5,1.6c0.1,0.2,0.1,0.5,0.1,0.7C1303.5,336.2,1295.3,336.2,1287,336.1z"/>
	<path class="st88" d="M1075.9,335.4c-0.2,0.3-0.3,0.5-0.2,0.8c-9.2,0-18.5,0.1-27.7,0.1c0.3-0.4,0.7-0.7,1-1.1
		c4.1-2.5,8.7-1.1,13.1-1.3c3.8-0.2,7.6-0.2,11.4,0.2c0.6,0.1,1.2,0.3,1.7,0.6C1075.4,334.9,1075.6,335.1,1075.9,335.4z"/>
	<path class="st89" d="M1378.3,228.4c-0.5-0.6-1-1.2-1.5-1.7c1.9-0.1,3.9-0.3,5.8-0.4c0.4,0.8,0.8,1.5,1.1,2.3
		c-1.6,1.5-3.2,0.9-4.9,0C1378.7,228.5,1378.5,228.4,1378.3,228.4z"/>
	<path class="st0" d="M1247.7,201.4c-1.9,2-4.4,0.9-6.6,0.9c-7.1,0.1-14.3,0-21.4-0.1c-1.9-2.3-3.7-4.6-6.7-5.6
		c-6.2-1.9-12.6-0.6-18.8-0.9c-4.6-0.2-9.3,0-14-0.1c-1.9,0-3.6-0.4-4.9-2c-0.4-0.5-0.6-1.1-0.7-1.7c-0.5-16-0.2-32.1-0.2-48.1
		c0-1,0.2-2,0.6-2.9c1.5-2.2,3.7-1.8,5.9-1.5c1.7,0.5,3,1.5,4.3,2.7c1.3,1.6,3,2.5,5,2.9c7.6,1.5,15.1,3.7,22.7,5.4
		c6.9,1.5,6.9,1.7,9.9-4.2c0.2,0,0.5,0,0.5,0.1c1.2,8.9,8.1,6.3,13.5,6.8c0.7,0.1,1.3,0.2,1.9,0.4c0.5,0.2,1,0.6,1.3,1.1
		c0.2,0.6,0.2,1.1,0.2,1.7c-0.6,6.3,0.6,12.6-0.9,18.8c-0.1,5.9,0.1,11.9-0.2,17.8c-0.2,4.3,0.5,7.5,5.9,7.3
		C1246.1,200.1,1247.1,200.6,1247.7,201.4z"/>
	<path class="st90" d="M1258.9,136.5c-0.1,5.1-0.2,10.2-0.3,15.2c-1.3-0.2-2.3-1.3-3.7-0.9c-1.1,0.3-2.1,0-3.2,0
		c-8.5-0.4-10.3-2-11.2-9.3c0-0.6,0-1.2,0-1.7c-0.2-4.2,2-5.9,6.1-5.7c1.8,0.1,3.6,0.3,5.4,0.4c1,0,2-0.1,3-0.1
		c1.1-0.5,2.1-0.1,3.1,0.2c0.4,0.2,0.8,0.4,1.1,0.7C1259.2,135.7,1259.2,136.1,1258.9,136.5z"/>
	<path class="st81" d="M1267.9,191.2c0.1,1.3-0.2,2.8,0.3,3.9c1.1,2.4-0.5,3.7-1.6,5.3c-0.4,0.6-1.3,0.8-1.6,0.1
		c-0.8-1.7-2.9-2.4-2.6-5c0.5-4.1,1.3-8.5-1.6-12.5c-2,0.8-2.2,2.6-2.8,4c-0.7,1.6-0.9,3.7-3.3,3.7c-0.6,0-1.7-0.9-1.8-1.4
		c-0.2-2.2-1.5-5.3,0.8-6.4c3.7-1.9,3.2-4.1,1.7-6.9c-0.8-1.6-0.4-2.4,1.5-2.6c3-0.2,7.1,3.2,7.8,6.2c0.9,3.9,0.7,8.2,3.1,11.7
		C1267.9,191.3,1267.9,191.2,1267.9,191.2z"/>
	<path class="st91" d="M1164.6,202.5c-1.3-2.4-2.6-4.8-3.8-7.1c-0.1-1.1,0.6-1.3,1.5-1.4c9.1-0.9,18,1.9,27,1.8
		c0.6,0,1.1,0.6,1.6,1.1c0.3,0.5,0.5,1,0.6,1.6c0,1.5-0.6,2.7-1.7,3.7C1181.4,202.3,1173,202.4,1164.6,202.5z"/>
	<path class="st92" d="M1189.8,202.2c0-1-0.1-2.1,1-2.8c2.1-1.7,5.7-0.8,6.9-4c5.8-0.6,11.6-1.3,17.2,1c2.8,1,5.1,2.4,4.9,5.9
		C1209.8,202.2,1199.8,202.2,1189.8,202.2z"/>
	<path class="st81" d="M1258.8,154.4c3.6,1.1,4.9,3.7,5,7.3c0.3,6.1-4.5,7.6-8.7,10.3c-0.5-3.5-0.5-6.4,1-9.3
		c0.9-1.8,4.2-3.5,0.2-6.3C1254.8,155.3,1257.6,154.6,1258.8,154.4C1258.9,154.4,1258.8,154.4,1258.8,154.4z"/>
	<path class="st93" d="M1252.8,149.9c0.7,0.3,1.4,0.6,2.1,0.9c-0.3,3.9,0.7,7.9-0.9,11.7c-1-2.6,1.2-5.7-1.1-8.1
		c-0.3-0.3-0.4-0.7-0.5-1.1c0-0.6-0.1-1.2-0.1-1.8C1252.2,151,1252.3,150.4,1252.8,149.9z"/>
	<path class="st94" d="M1122.7,72.4c0.8-1,1.5-2,2.3-3c8.1-1.2,15,2.2,21.9,5.7c0.3,0.5,0.5,1,0.6,1.5c0,0.6-0.1,1.1-0.4,1.6
		c-2.2,2.7-2.9,5.8-2.9,9.3c0.1,15.4-0.4,30.9,1.8,46.3c0.5,3.8,0.4,7.7-1.2,11.3c-2.2,4.8-5.4,5.2-8.5,1c-0.3-0.4-0.5-0.9-0.8-1.3
		c-0.9-1.3-1.7-3.5-3.5-3c-2.1,0.5-0.6,2.9-1.3,4.3c-0.6,1.5-0.7,3.3-2.9,3.6c-1.9-5-0.6-10.6-2.4-15.6c-0.3-1.1,4.4-2,0.2-3.4
		c-0.3-0.4-0.4-0.9-0.5-1.3c0.2-1.8,0.2-3.5,1.7-4.9c1.3,3.9,7.3,3.3,7.9,8.4c0.2,1.3,3.3,0.3,4.1-1.7c1.5-3.5,2.4-7.3,1.9-11.1
		c-1.7-11.9-1.1-23.8-0.4-35.6c0.5-6.9-3.8-11.4-12.2-12C1126.4,72.4,1124.5,72.5,1122.7,72.4z"/>
	<path class="st0" d="M1067.6,120.5c-3.2,0.1-6.8,0.1-7.6-4.6c-0.9-5.1,2.2-12,6-13.2c1.7-0.5,3.4-1.2,5.2-1.7
		c2.6-0.8,4.9,0.3,5.5,2.8c0.8,3.3,1.2,6.9,1.1,10.3C1077.7,118.9,1075.1,120.5,1067.6,120.5z"/>
	<path class="st95" d="M1102,135.4c-0.1-1.7-0.3-3.3-0.4-5c1-0.5,2.6-0.9,2.8-1.6c2.6-7.9,9-5.3,14.4-5.5c5.7,3.9,6.3,5.3,3.8,9.8
		c-1.7,1.9-4.1,2.5-6.4,3.2c-1.5,0.3-3.1,0.4-4.6,1.1c-2.2,0.7-3.3,2.7-5,4c-0.4,0.2-0.8,0.4-1.2,0.4c-1.9-0.6-2.2-2.5-3.1-3.9
		c-0.3-0.6-0.5-1.2-0.5-1.8C1101.9,135.8,1101.9,135.6,1102,135.4z"/>
	<path class="st96" d="M1122,132.8c2-2.8,1.2-5.1-1.3-6.9c-1-0.7-1.8-1.3-1.8-2.6c0.7-1.6,2.7-0.9,3.6-2c5.3,1,2.7,5.3,3.3,8.2
		c0,0.3,0,0.7,0.1,1c0,0.7-0.4,1.2-0.8,1.7C1124.1,132.8,1123.1,133.4,1122,132.8z"/>
	<path class="st95" d="M1125.7,129.4c-2.2-2.3,0.9-6.7-3.3-8.2c2.2-1.1,2.2-1.1,4.4,3.2C1126.8,126.2,1127.1,128,1125.7,129.4z"/>
	<path class="st0" d="M1073.9,95.1c-1-0.3-1-1.1-1-1.9c0.1-1.4,1.1-2,2.2-2.1c1-0.1,1.3,0.8,0.9,1.7
		C1075.7,93.8,1075.3,95,1073.9,95.1z"/>
	<path class="st97" d="M1130.8,258.3c1.7-3.5,4.9-1.5,7.4-1.8c1.9-0.2,3.8,0.5,5.8,0.8c4.3-0.7,8.1,1,12,2.1
		c7.2,2.1,14.3,4.3,21.5,6.3c2.6,0.7,5.6,1,7.3,3.7c-1.3,1.3-4.1,0.9-4,3.7c-7-2-14-3.9-21-5.9c-6.1-0.1-11.7-2.1-17-4.9
		c-3.5-1.1-7.1-2.2-10.6-3.2C1131.6,259.1,1131,259.1,1130.8,258.3z"/>
	<path class="st0" d="M1130.8,258.3c0.5,0.3,0.9,0.6,1.4,0.9c-0.3,0.2-0.5,0.4-0.8,0.6c-1.5,1.5,1.7,4.5-1.2,5.1
		c-3.1,0.6-6.2,2.4-9.7,0.9c-2.4-1.1-5.1-1.3-7.7-1.5c-4.8-0.5-7.4-4.2-10-7.7c7.9-0.1,15.9-0.1,23.8-0.2
		C1128.5,256.3,1129.8,256.9,1130.8,258.3z"/>
	<path class="st0" d="M1142.8,262.5c5.9,1,11.5,2.8,17,4.9c-0.5,2.2,1.3,3.6,2.6,5.8c-6.1,0.4-11.7-1-16.9-2.4
		C1142.5,270,1142.8,265.6,1142.8,262.5z"/>
	<path class="st0" d="M1126.1,267.4c2.4,0.9,4.9,2.1,6.4,4.6c0.5,0.7,0.3,1.6-0.2,2.3c-0.6,0.8-1.4,0.6-2.2,0.3
		c-1.8-0.7-3.7-1.4-5.5-2c-1.5-0.5-3-1.1-2.4-3C1122.6,267.9,1124.3,267.6,1126.1,267.4z"/>
	<path class="st98" d="M1222.7,139.8c-0.8-1.4-0.8-2.9-0.7-4.4c1-4-0.7-8.1,0.6-12.2c0.4-1.2-0.2-2.3-1.9-1.6
		c-2.1-7.2-1.7-7.7,5.3-8.4c0.9-0.1,1.8-0.6,2.7-0.9c4.1,2.6,8.3,2,12.6,0.6c2.8,0.6,6.1-1.5,8.4,1.6c0.8,6.2,1.3,12.5,1.3,18.8
		c-0.7,3-3,0.9-4.5,1.5c-0.8-0.1-1.4-0.4-2-1c-1.4-2.2-1.8-4.9-4.4-6.4c-2.6-1.5-5.1-2.3-7.8-0.2c-2.4,1.9-3.7,4.2-2.4,7.3
		c0.4,0.9,0.5,1.9,0.5,2.9c-0.3,2.8-0.7,5.6-1.6,8.2c-0.4,1.2-0.2,2.4,1.1,2.9c1.5,0.6,2.7,0,3.3-1.4c0.9-2.1,1.4-4.5,3.8-5.6
		c1-0.3,1.9-0.4,2.9-0.1c1.5,7,6.4,9.5,13,9.7c0.8,0.7,0.8,1.4,0,2.1c-1.6,1.3-3.5,0.9-5.3,0.9c-6.6,0.1-13.3-0.9-19.9-0.5
		c-2.6,0.2-3.5-0.8-3.4-3.4C1224.4,146.9,1223.5,143.3,1222.7,139.8z"/>
	<path class="st99" d="M1240.9,113.6c-2.6,3.9-6.5,1.3-9.8,1.8c-2.1,0.3-2.2-1.5-2.3-3c-0.2-2.5,1.9-1.7,3.1-2.1
		c2.7,0.7,5.7-1.1,8.2,1.2C1240.3,112.2,1240.7,112.8,1240.9,113.6z"/>
	<path class="st100" d="M1189.1,126.4c-0.5,1.3,0.3,3-1.2,4c-2.5-4.4-7.2-3.3-11.1-4.5c-0.5-0.2-0.2,0.7-0.1,0.1
		c0-0.1,0.2-0.1,0.5,0c3,1.1,3.8,3.5,3.4,6.4c-0.3,1.7-0.3,4.2-2.6,4.2c-2.2,0.1-2.2-2.4-2.3-3.8c-0.2-3-3.9-4.2-3.5-7.4
		c0.2-0.5,0.4-0.8,0.9-1.1c1.7,0.4,3.3,0.2,4.7-0.9C1181.6,124.1,1185.7,123.7,1189.1,126.4z"/>
	<path class="st101" d="M1220.7,121.7c0.3-1-0.3-2.9,1.3-2.7c2.1,0.2,2.5,2.8,2.1,3.9c-1.5,4.1-0.6,8.5-2.1,12.5
		c-0.2-0.3-0.3-0.6-0.3-0.9C1222.2,130.2,1220,126,1220.7,121.7z"/>
	<path class="st21" d="M1155.6,164.6c-1.9-1.4-3.9-2.8-5.8-4.2c-0.8-1.7-1.5-3.3,0.2-4.9c2.2,0.2,3.6-0.3,4.1-2.9
		c1.3-6.1,1.1-12.2,0.4-18.3c-0.8-7.6-1.1-15.1,0.2-22.6c0.4-2.4,0.7-3.3,3.3-2.1c3.4,1.5,6.8,3.5,10.8,3.1c0.9-0.1,1.7,0.4,1.7,1.4
		c0,1-0.7,1.4-1.6,1.5c-0.5,0-1,0-1.5,0.1c-1.3,0.3-2.7,0.4-3.2,1.9c-0.3,0.9,0.6,1.5,1.3,1.9c1.3,0.7,2.5,1.5,4.2,0.5
		c0.9-0.6,1.2-3.5,3.2-1.1c0,1.6-0.1,3.2-0.1,4.8c-3.3,1-4.9,2.4-4,6.4c0.7,3.2,1,6.9-0.7,10.2c-2.6,1-2.2-1.3-2.5-2.5
		c-0.5-1.8,0.2-3.6,0.1-5.5c0.2-0.6-1-0.4-0.3-0.4c0.2,0,0.2,0.2,0.1,0.5c-0.7,3.6-4.2,6.7-1.8,10.8c0.7,1.1,0.9,2.6,1.9,3.5
		c10.2,8.9,4,20.5,5.1,30.9c0.2,1.7-1.8,3-3,1.1c-2.6-4.2-6.2-8-5.7-13.5c0.1-1.6,0.9-3.7-1.1-4.4c-2-0.7-1.9,1.9-2.8,2.8
		C1157.4,164.3,1156.8,165.1,1155.6,164.6z"/>
	<path class="st102" d="M1150,155.5c-0.1,1.6-0.1,3.3-0.2,4.9c-0.6,0-1-0.2-1-0.8c-1.3-2.3-1.3-4.7-1.3-7.3c0-23.4,0-46.8,0-70.3
		c0.1-1.7,0-3.4,1.5-4.5c0.2,0,0.4,0,0.6,0c0.1,3,0.3,6,0.4,9C1150,109.5,1150,132.5,1150,155.5z"/>
	<path class="st44" d="M1078.9,266.4c1,0,2,0,3,0c0.3,2,4.1,4.4-0.3,5.7c-1.5,0.4-4.1,2.1-5.3,0.1
		C1074.7,269.7,1078,268.4,1078.9,266.4z"/>
	<path class="st103" d="M1258.7,135.5c-1.3-0.4-2.6-0.8-3.9-1.2c0-1.6,0-3.2,0-4.8c1.2-4-0.2-8.1,0.8-12.1c0.5-1.7-0.7-3.8,1.2-5.2
		c0.8-0.5,1.5-0.4,2.3,0c0.7,0.4,1.2,1,1.3,1.9c-2.5,4.6-2.5,9.5-2.2,14.5c0.1,1.1-0.1,2.7,1.6,2.6c1.5-0.1,1.5-1.6,1.6-2.7
		c0.2-3,0.3-6-0.7-8.9c-0.9-2.6-0.8-4.9,1.6-6.7c2.9,0,1.8,2.2,2.1,3.7c0,5.7,0.1,11.4,0,17.1
		C1262.8,135.7,1260.6,135.3,1258.7,135.5z"/>
	<path class="st13" d="M1258.8,112.6c-0.7-0.1-1.3-0.3-2-0.4c-2.1-3.7-0.3-7.8-1.1-11.6c3.1,0.5,0.9,2.7,0.9,3.8
		c0.1,6.1,1,7.1,7.2,6.8c0,0,0.1,0.1,0.1,0.1C1262.8,114.2,1260.7,113,1258.8,112.6z"/>
	<path class="st104" d="M1240.9,113.6c-0.7-0.5-1-1.2-0.8-2.1c1.9,1.4,4,0.9,6.1,1c1.5,0.1,3.5-0.5,3.6,2.1
		C1246.9,112.6,1243.8,113.7,1240.9,113.6z"/>
	<path class="st105" d="M1255.6,117.4c0.1,4.1,0.9,8.1-0.8,12.1C1255,125.5,1254.1,121.4,1255.6,117.4z"/>
	<path class="st106" d="M1074.9,295.4c-0.7-0.1-1.4-0.1-2.1-0.2c4-1.5,8.1-0.4,12.2-0.7C1081.7,296.3,1078.2,295.1,1074.9,295.4z"/>
	<path class="st107" d="M1062,300.2c0.7-2.2,1.4-4.3,2-6.5c1.8,2.2-0.9,4.2-0.2,6.4C1063.2,300.1,1062.6,300.1,1062,300.2z"/>
	<path class="st108" d="M1149,77.5c-0.1,1.3-0.2,2.7-0.3,4c-0.6,0.3-1.1,0.1-1.4-0.5c-1-1.8,0.4-3.5,0.1-5.2
		c0.3-4.8-0.7-9.6,0.6-14.3c0.3,0,0.6,0,0.8,0C1148.8,66.8,1148.9,72.1,1149,77.5z"/>
	<path class="st109" d="M1147.9,61.5c-0.1,5-0.2,10-0.2,15c-0.2,0-0.4,0-0.7,0c-0.1-0.4-0.2-0.7-0.3-1.1c0-4.6,0-9.3,0-13.9
		C1147.1,61.5,1147.5,61.5,1147.9,61.5z"/>
	<path class="st110" d="M1083.8,164.5c-0.3,2.8-2.5,5-2.1,8c-1,0.8-1.7,0.3-2.2-0.7c-0.3-1.9,1.1-4.8-2.7-4.7
		c-2.3-0.4-3.5-2.1-4.9-3.8c-0.9-2.4-3.8-1.3-5.1-2.9c5.1-3.7,1.3-7.4,0-11.1c1.2-0.4,2.8,0.5,3.8-0.9c0.1-0.3,0.2-0.6,0.2-0.9
		c0.4-0.3,0.8-0.4,1.3-0.2c3.7,4.8,7.6,9.6,11.1,14.6C1083.7,162.7,1083.3,163.7,1083.8,164.5z"/>
	<path class="st111" d="M1083.8,164.5c-0.8-0.5-0.9-1.2-0.9-2c1.9-7.7-4.4-14-11.1-14.9l-0.4,0c0,0-0.4,0-0.4,0
		c-4.1-3.8-4.1-7.1,0-10.2c1.4-0.7,2.9-0.2,4.4-0.3c3.2,8.3,9.3,14.2,16,19.6c0.4,0.3,0.7,0.6,0.9,1c-0.2,2.2-2.4,0.7-3.2,1.8
		C1086.5,160.4,1085.4,162.7,1083.8,164.5z"/>
	<path class="st112" d="M1075.9,136.4c0.2-1.7,1-2.9,2.8-2.8c7.8,0.4,15.8-1.6,23.3,1.9c0,0,0.1,0,0.1,0c-0.2,1.7-1.5,2.2-2.8,2.3
		c-7.1,0.3-14.2,0.5-21.3-0.1C1077.1,137.5,1076.5,136.9,1075.9,136.4z"/>
	<path class="st113" d="M1075.9,136.4c7.4,0,14.8,0.1,22.1,0.1c1.4,0,3,0.3,4.1-1.1c0.8,0.5,0.6,1.3,0.6,2.1
		c-1.1,1.2-2.6,1.4-4.1,1.4c-7.1,0-14.2,0.5-21.2-0.3c-0.6-0.2-1.2-0.5-1.6-1c-1.6-0.1-3.3-0.2-4.9-0.3
		C1072.3,135.8,1074.2,136.7,1075.9,136.4z"/>
	<path class="st100" d="M1168,140.4c-1.4-5,1.7-10.5-1.9-15.2c-0.7-0.9,0.7-1.6,1.8-1.6c1.6,0,3.3,0,4.9,0c0.1,0.2,0.2,0.5,0.1,0.7
		c0,0-0.3,0.3-0.3,0.3c-2,3.3-2.5,7-2.5,10.7c0,3.1,2.6,2.6,4.6,3c2.4,0.4,5.7-1.7,6.9,2.3c-2,0-3.9,0.1-5.9,0.1
		c-0.5,0.3-1,0.6-1.5,0.8C1172.2,141.8,1169.9,142.2,1168,140.4z"/>
	<path class="st114" d="M1066.8,149.4c0.7,0.7,1.4,1.4,2,2.1c4,5.1,3.9,5.8-2,9c-1-0.4-2-0.7-2.9-1.1c-5.3-2.1-10-5.2-15-8
		c-0.6-0.6-1.3-1.2-1.9-1.8C1053.6,149,1060.2,149.2,1066.8,149.4z"/>
	<path class="st115" d="M1182.8,240.4c-25.3,0-50.7,0-76,0c2-4.9,6.1-8.1,9.9-11.4c0.9-0.8,2.9-0.5,4.3-0.5c18.4,0,36.8,0,55.3,0
		c6,0,6.5,0.5,6.6,6.5C1182.9,236.7,1182.8,238.5,1182.8,240.4z"/>
	<path class="st116" d="M1101.8,193.4c1.2,4.1,3.2,5.8,8.2,5.4c9.2-0.9,18.6-0.4,27.9-0.3c5.4,0.1,8.7,2.9,10,7.8
		c-2,3.7-6.3,3.2-9.2,5.3c-1.6,0.2-3.3,0.1-4.9,0.2c-7.3,0.8-14.7,0.6-22,1.8c-1.5,0.1-2.9-0.2-4.1-1c-0.5-0.2-1.1-0.3-1.6-0.5
		c-5.7-5-9.1-11.6-12.7-18.1c-0.2-0.4,0.1-1,0.4-1.3c0.6-0.1,1.3-0.3,1.9-0.4C1098,191.4,1100.2,191.2,1101.8,193.4z"/>
	<path class="st117" d="M1071.8,173.3c1,2.8,2,6.3,6.3,7.2c2.6,0.5,3.6,2.1,1.9,4.2c-1.5,1.9-0.7,4.2-1.8,6.1
		c-1.7,3.1-4.1,3.6-6.1,0.9c-1.9-2.6-4.8-4.6-4.6-8.5c0.1-1.9-1.8-3.4-3.2-4.8c-2.3-2.2-4-4.8-5.2-7.8c-0.6-1.5-1.2-3.2,0.3-4.6
		c1.6-1.5,3.2-1.3,5-0.3c1.3,0.7,2.7,1.2,4.2,1.6C1071.4,167.9,1072.8,169.5,1071.8,173.3z"/>
	<path class="st118" d="M1123.7,221.3c1.4,1.8,3.3,1.1,5.1,1.1c13.6,0.1,27.2,0.1,40.9,0c3.2,0,6.2,0.5,8.7,3
		c-1.2,1.5-2.6,0.9-3.8,0.9c-18.4,0.1-36.9,0.1-55.3,0.1c-0.8,0-1.7,0-2.5-0.1c-1.7-0.1-3-1-3.4-2.5c-0.5-1.9,2.2-1.1,2.6-2.4
		c0.4-0.3,0.8-0.3,1.2,0c1.8,3,3.1,1,4.6-0.4C1122.4,220.8,1123.1,220.8,1123.7,221.3z"/>
	<path class="st20" d="M1133.8,220.4c10.8,0,21.6,0,32.4,0c1.3,0,2.7,0.2,4-0.1c12.4-3.2,17.1,5.9,16.1,15.7c-0.3,3,0.4,3.5,2.9,3.5
		c3.8-0.1,7.7,0,11.5,0c0.3,0.2,0.4,0.4,0.3,0.6c-0.1,0.2-0.2,0.3-0.3,0.3c-5.3,0-10.6,0-15.9,0c0-1.8,0-3.7-0.1-5.5
		c-0.3-8.4-5.4-13.5-13.9-13.5c-10.6-0.1-21.3,0-31.9,0C1137.3,221.3,1135.3,221.9,1133.8,220.4z"/>
	<path class="st117" d="M1048.9,151.5c5.9,0.9,10.6,4.2,15,8c-0.3,2.8-1.3,4.3-4.5,3.2c-1.1-0.4-2.6,0.2-3.9,0.5
		c-1.8,0.4-3.4-0.1-3.4-1.8C1052.1,157.6,1049.4,154.9,1048.9,151.5z"/>
	<path class="st119" d="M1104.5,212c-2.8,1.8-4.6-0.2-6.6-1.6c-0.2-0.1-0.4-0.2-0.6-0.3c-3.8-5.8-9.4-10.6-10.2-18.1
		c1.1-0.7,2.3-0.7,3.6-0.5c3.3,1.5,4.3,4.9,6.1,7.6C1099.4,203.3,1103.1,207,1104.5,212z"/>
	<path class="st120" d="M1097.9,210.4c-0.4,2.6-1.9,1.7-3.1,0.9c-5.7-3.5-8.2-8.7-7.7-15.3c3.5,1.8,4.3,5.6,6.6,8.4
		C1095.1,206.3,1096.2,208.6,1097.9,210.4L1097.9,210.4z"/>
	<path class="st121" d="M1104.5,212c-4.5-6.5-9-13.1-13.4-19.6c-3.4-2.7-5.4-6.3-7.1-10.1c0-0.3-0.1-0.6-0.2-0.9
		c-0.6-0.8-0.5-1.5,0.2-2.2c4.1,3.9,6.1,9.4,9.9,13.5c4.1,6.5,8.2,12.9,12.3,19.4C1105.6,212.1,1105.1,212,1104.5,212z"/>
	<path class="st122" d="M1084,179.2c-0.1,0.7-0.1,1.4-0.2,2.2c-2.6-0.1-3.3-2.3-4.5-4c-3.1-4.5-6.5-8.9-9.7-13.3
		c1-0.6,1.6,0.3,2.3,0.5c2.9,0.9,4.2,3.4,5.8,5.5c2.2,3,3.8,6.5,6.3,9.3L1084,179.2z"/>
	<path class="st123" d="M1111.8,212.4c0.6,2.8,3.1,4.9,3.1,7.9c-4.9-0.3-5.8-4.2-7.1-7.8C1109.1,212.6,1110.4,212.5,1111.8,212.4z"
		/>
	<path class="st124" d="M1086.1,192.2c0.3,0.2,0.6,0.4,1,0.6c2.9,4.5,5.9,8.9,8.8,13.5c0.8,1.3,2.4,2.3,2.1,4.2
		c-4.9-3.8-7-9.8-10.9-14.4C1086.7,194.7,1085.7,193.6,1086.1,192.2z"/>
	<path class="st117" d="M1076.9,170.4c-1.7-2-3.4-4-5-5.9c0-0.4,0-0.8,0.1-1.2c2.3,0.1,3.1,2.3,4.9,3.2c1.1,0.7,1.7,1.7,1.6,3
		C1078.1,170.2,1077.8,170.8,1076.9,170.4z"/>
	<path class="st20" d="M1124.9,220.4c1.9-1.4,3.9-2.8,5.8-4.3c0.3,1.9-3,2.2-1.8,4.4C1127.5,222,1126.2,221.1,1124.9,220.4z"/>
	<path class="st125" d="M1200.7,240.3c0-0.3,0-0.6,0-0.9c0-3,0.1-6,0.1-9c0.6-8.3,6.8-12.6,15.9-12.3c18.1,0.5,36.2,0,54.2,0.3
		c2.1,0,4.4-0.4,5.9,1.9c0.3,0.1,0.7,0.1,1,0.2c-0.4,0.8-1.2,0.9-2,1c-2,1.8-4.4,1.4-6.7,1.4c-16,0-31.9,0.2-47.9-0.1
		c-5.8-0.1-11.2,0.6-16.3,3.5c0,0.7-0.1,1.4-0.1,2.1c-0.9,3.6,0.1,7.6-1.9,11c0,0.3,0,0.6,0,0.9
		C1202.2,240.3,1201.5,240.3,1200.7,240.3z"/>
	<path class="st126" d="M1264.6,134.5c-0.3-0.1-0.6-0.1-0.8-0.2c0-5.9,0.1-11.9,0.1-17.8c0.3-0.4,0.6-0.5,0.8,0
		C1264.6,122.5,1264.6,128.5,1264.6,134.5z"/>
	<path class="st127" d="M1264.7,116.5c-0.3,0-0.6,0-0.8,0c-0.1-1.4,0.2-3-2-2.9c-0.7,0.5-1.3,0.5-2,0c-0.3-0.3-0.7-0.7-1-1
		c1.8-0.3,3.8,0.5,5.2-1.2C1265.6,112.9,1264.7,114.8,1264.7,116.5z"/>
	<path class="st56" d="M1292.8,331.4c-0.6-5.3,3-10.2,8.2-10.8c3.2-0.4,5.2,1,4.7,4.5c-0.2,1.6-0.8,3.1-1.3,4.9
		c2.1-0.1,4.4-3.6,5.8,0c0.6,1.5-1.5,1.2-2.5,1.4C1302.8,333.8,1297.8,333.8,1292.8,331.4z"/>
	<path class="st128" d="M1215.9,334.6c-0.3-0.4-0.6-0.8-0.9-1.2c1.1-0.8,2.4-1,3.8-1c13.2,0.1,26.4,0.1,39.7,0.1
		c1,1.8-0.8,2-1.5,2.8c-0.2,0-0.4,0-0.5,0.2c-13.2,0-26.3,0-39.5,0C1216.6,335.2,1216.3,334.9,1215.9,334.6z"/>
	<path class="st129" d="M1292.8,331.4c5,0,10,0,15,0c1.5,1.8,4.2,0.3,5.8,1.9c-0.3,0.4-0.6,0.9-0.9,1.3c-0.3,0.3-0.7,0.6-1,1
		c-8.1,0-16.3,0-24.4,0.1c-0.4-0.4-0.9-0.8-1.3-1.1c-1.9,0.1-1.8-0.8-1.1-2.1C1287.6,332.5,1290.2,332.2,1292.8,331.4z"/>
	<path class="st130" d="M1233.8,317.5c-23,0-45.9,0-68.9-0.1c-1.7,0-3.7,0.7-5.2-1c1.5-1.4,3.3-1.4,5.1-1.4c21.9,0,43.7,0,65.6,0
		c1.5,0,3,0,4.4,0.7c0.2,0.2,0.5,0.4,0.7,0.7C1235.4,317.2,1234.6,317.4,1233.8,317.5z"/>
	<path class="st131" d="M1232.8,320.4c-0.5-1.2-1.6-1-2.5-1c-23.1,0-46.2,0.1-69.3,0.2c0.8-1.6,2.2-1.2,3.5-1.2
		c23.1,0,46.2,0.1,69.3,0.1C1233.7,319.3,1233.6,320,1232.8,320.4z"/>
	<path class="st132" d="M1257.8,316.3c0,0.4,0,0.7,0,1.1c-7.4-0.4-14.8,1-22.1-1c0,0,0-0.2,0-0.2c0-0.3,0-0.6,0-0.8
		c0.2-0.2,0.4-0.3,0.7-0.5c0.8-0.3,1.6-0.4,2.5-0.3c4.5,0.4,8.9-0.9,13.3-0.5c2,0.2,4-0.2,5.6,1.4l0,0c0.4,0.2,0.5,0.4,0.4,0.5
		C1258.1,316.2,1257.9,316.3,1257.8,316.3z"/>
	<path class="st133" d="M1285.9,322.4c0.4-2.4-0.7-3.1-3.1-3c-8.3,0.2-16.6,0.2-25,0.2c0.5-1.1,1.5-1.2,2.5-1.2c7.8,0,15.6,0,23.4,0
		C1287,318.4,1287.8,319.7,1285.9,322.4z"/>
	<path class="st134" d="M1257.8,315.4c-5.4,0.1-10.8-0.7-16.1,0.8c-1.3,0.4-2.6-0.3-3.7-0.9c-0.2-1.4,0.9-1.9,1.9-2.5
		c0.5-0.2,1.1-0.4,1.7-0.5c5.5,0.3,11.2-1.5,16.5,1.3C1257.9,314.1,1257.8,314.8,1257.8,315.4z"/>
	<path class="st135" d="M1257.8,316.3c0-0.3-0.1-0.6-0.1-0.9c9.7,0,19.3,0,29,0c0,0.3,0,0.5,0,0.8
		C1277.1,316.2,1267.5,316.3,1257.8,316.3z"/>
	<path class="st136" d="M1257.9,313.5c-6,0-12.1,0-18.1-0.1c-0.1-1.9,1.5-2,2.7-2.2c1.8-0.4,3.7-0.4,5.5-0.2
		c4.5,0.5,8.1-0.5,10.2-4.8c0.3,0.1,0.5,0.2,0.8,0.2C1258.3,308.7,1259.9,311.4,1257.9,313.5z"/>
	<path class="st137" d="M1261.8,297.2c0.6,0.4,1.3,0.8,1.9,1.2c-4.8,0.8-3.8,4.6-4,7.8c-0.2,0.2-0.5,0.2-0.8,0.3c0,0-0.5,0-0.5,0
		c-1.3-3.4-2.9-6.9,1.5-9.5C1260.7,296.9,1261.3,297,1261.8,297.2z"/>
	<path class="st138" d="M1261.8,292.1c-0.7-0.2-1.4-0.4-2.1-0.7c-1.7-2.7-1.8-5.4,0.2-8c1.3-0.4,2.6-0.7,4-1.1
		c2.5,1.9,1.1,3.4-0.5,5C1262,288.7,1259.9,289.8,1261.8,292.1z"/>
	<path class="st1" d="M1261.8,297.2c-0.3,0-0.7-0.1-1-0.1c0-0.2,0-0.5,0-0.7c-1.3-1.7-0.3-2.9,1-4c0.8,0.3,1.5,0.5,2.3,0.8
		C1264.3,295.1,1263.9,296.6,1261.8,297.2z"/>
	<path class="st139" d="M1373.7,323c0-4.3,3.1-7.1,6.5-7c3.5,0.2,5.6,2.1,5.7,5.6c0.1,3.7-1.8,6-5.7,6
		C1376.5,327.7,1374.3,325.7,1373.7,323z"/>
	<path class="st0" d="M1184.8,269.5c-13.6-4.1-27.2-8.1-40.9-12.2c0.8-1.3,2-0.9,3.1-0.9c29.6,0,59.2,0.1,88.8,0.1
		c0.7,2.6,0.3,5.2,0.2,7.8c-1.8,5.1-0.3,10.5-0.9,15.7c-0.1,1.3,1.3,3.6-1.7,3.6c-9.4-1.9-18.5-4.8-27.4-8.1
		c-5.1-1.8-10.2-3.4-15.5-4.1C1188.4,271.2,1186.8,270.1,1184.8,269.5z"/>
	<path class="st140" d="M1260.8,296.4c0,0.2,0,0.5,0,0.7c-3.9,2.3-0.8,6.4-2.2,9.3c-0.8,0.8-0.8,1.8-0.7,2.7
		c0.2,2.8-1.3,3.3-3.6,3.2c-3.3-0.1-6.5-0.1-9.8,0c-1.6,0-3.3-0.5-4.6,1c0,0,0,0,0,0c-4.7,2.2-4.8-1.5-5.5-4.4
		c-1.7-5.9-1.1-12-0.5-18c5-2,9.1,1.3,13.7,2.2C1252,294.1,1256,296.8,1260.8,296.4z"/>
	<path class="st3" d="M1233.8,291c2.3,3.5,0.6,7.3,0.9,10.9c0.2,2.4,0.1,4.9,0.2,7.3c0.6,1.6,0.7,3.3,0,4.9
		c-0.5-5.9-4.4-5.9-9.1-5.9c-12.1,0.1-24.1-1.7-35.9-4C1204.5,299.9,1219.2,295.5,1233.8,291z"/>
	<path class="st141" d="M1159.7,315.5c23.1,0,46.3-0.1,69.4-0.1c2.2,0,4.3-0.1,6.5-0.1c0.1,0.3,0.1,0.6,0.1,0.9
		c-25.3,0.1-50.6,0.2-75.9,0.2C1159.7,316.1,1159.7,315.8,1159.7,315.5z"/>
	<path class="st142" d="M1259.9,283.5c-0.1,2.7-0.1,5.3-0.2,8c-3.9-1.1-7.7-2.1-11.6-3.2C1251.9,285.6,1255.8,284.2,1259.9,283.5z"
		/>
	<path class="st143" d="M1233.5,283.6c2.7-5.1,0.8-10.6,1.1-15.8c0.1-1.3-0.6-2.6,1-3.3c0.7,0.6,0.6,1.2,0.3,1.9
		c-0.1,5.9-0.2,11.9-0.4,17.8C1234.9,284,1234.2,283.8,1233.5,283.6z"/>
	<path class="st144" d="M1122.1,315.2c4.2,0,8.5,0,12.7,0.1C1130.5,316.9,1126.3,317,1122.1,315.2z"/>
	<path class="st145" d="M1260,276.4c0.2-6-0.9-12,0.9-17.9C1260.3,264.4,1261.9,270.5,1260,276.4z"/>
	<path class="st146" d="M1247.6,257.4c1,0,2,0,3,0c6.4,0.1,7.5,2,4.9,8c-0.8,2-1.9,4.3-1.5,6.2c0.9,4.7-2,5.3-5.2,6.4
		c-3.3,1.1-6.5-0.4-9.8,0.1c-2.1,0.3-2.8-2.1-1.3-4c3.2-3.8,3.7-7.9,2.3-12.6c-0.9-2.9,0.4-4.4,3.6-4.1
		C1244.9,257.5,1246.3,257.4,1247.6,257.4z"/>
	<path class="st146" d="M1236,266.3c-0.1-0.6-0.2-1.3-0.3-1.9c0.1-2.6,0.2-5.3,0.2-7.9c0.3-0.1,0.6,0,0.9,0.1
		C1236.4,259.8,1237.7,263.2,1236,266.3z"/>
	<path class="st20" d="M1276.8,220.3c-2-1.1-4.2-0.9-6.3-0.9c-17.3,0-34.5,0.3-51.8-0.1c-8.7-0.2-14.7,2.9-17.8,11.1
		c-0.2-0.6-0.7-1.2-0.7-1.8c0-1.9,1.8-5-0.1-5.4c-2.3-0.5-5.1-1.7-7.6-0.1c-2.2,1.4-3.6,1.1-4.2-1.7c-0.5-2.7-1.6-5.1-4.7-5.7
		c-0.9-0.2-1.9-1-1.4-2.2c0.4-1.2,1.6-1.1,2.5-1.1c5.3,0,10.6-0.1,16,0c2.7,0,5-0.3,6.1-3.2c0.1-0.2,0.1-0.3,0.2-0.5
		c0.4-1.2,1.9-1.7,2.2-0.8c1.8,4.4,7.3,0.5,9.2,4.3c0.3,0.7-0.5,1.1-1.1,1.4c-1.2,0.8-2.3,0.8-3.7,0c-4.5-2.7-9.2-1.2-11.3,3.4
		c-0.3,0.7-0.3,1.7,0,2.3c0.4,0.8,1.2,0.2,1.7-0.1c1.8-1.1,4.2-0.2,5.8-1.1c4.3-2.4,8.6-1,13-0.9c16.2,0.3,32.4,0.1,48.7,0.1
		C1273.7,217.4,1276.3,216.8,1276.8,220.3z"/>
	<path class="st20" d="M1138.8,210.7c3-1.5,6.6-1.9,9.1-4.4c2.6-0.3,5.2-0.7,7.8-1c-0.7,1.3-1.4,3-3.2,2.4c-3.4-1-5.5,2.7-8.7,2.3
		c-0.4-0.1-1.1,0.5-1.1,0.8c-0.3,7-4.6,2.4-7.3,2.5C1135.7,211.3,1137.6,211.4,1138.8,210.7z"/>
	<path class="st147" d="M1202.9,239.4c0.6-3.7-1.9-7.9,1.9-11c24,0,47.9,0,71.9,0c8,0,8,0,8,8c0,1-0.1,2-0.1,3
		C1257.4,239.4,1230.2,239.4,1202.9,239.4z"/>
	<path class="st148" d="M1277.8,226.3c-22.3,0-44.7,0-67,0c-0.7-4.3,2.4-3.9,5-3.9c15.6-0.1,31.1,0,46.7,0c4.5,0,8.9,0,13.4-0.1
		c0.6,0.1,1.3,0.1,1.9,0.2C1278.7,223.8,1278.9,225.1,1277.8,226.3z"/>
	<path class="st149" d="M1275.9,222.3c-1.9,1.3-4.1,1.1-6.3,1.1c-17.8,0-35.6,0-53.5,0c-2.3,0-4.9-0.6-5.3,2.9c-2,0-3.9,0-5.9-0.1
		c2.6-3.5,6.1-4.9,10.4-4.9c20.2,0.1,40.3,0,60.5,0C1275.8,221.7,1275.9,222,1275.9,222.3z"/>
	<path class="st149" d="M1277.8,226.3c0-1.3,0-2.6,0-3.8c1.5,0.7,3.3,1.7,3.1,3.4C1280.8,226.9,1278.9,226.3,1277.8,226.3z"/>
	<path class="st150" d="M1074.7,335.1c0.8-5.5,1.6-11.1,2.4-16.6c2-0.1,1.1,1.3,1.1,2.2c-0.8,4.9-1.5,9.8-2.3,14.7
		C1075.5,335.3,1075.1,335.2,1074.7,335.1z"/>
	<path class="st151" d="M1181.8,140.6c-2.1-2.1-4.7-1-7-1c-6.2-0.2-6-0.1-6.1-6.4c0-2.5,2.9-4.4,0.9-7.3c-0.6-0.8,1.8-1.3,3.2-1.2
		c0.1,0.8,0,2.1,0.5,2.3c3.9,1.9,3.4,5.8,4.6,9c3-6.1,2.5-7.8-2.8-10c10-1.4,11.6-0.9,12.8,4.4c-1.8,3.9-0.5,8.6-3,12.3
		C1183.5,142.4,1182.4,141.9,1181.8,140.6z"/>
	<path class="st152" d="M1174.8,140.7c0.4,0,0.7,0,1.1,0c0,17.3-0.1,34.5-0.1,51.8c-0.4-0.3-0.8-0.7-1.1-1
		c-1.6-4.1-1.5-8.5-1.5-12.8c0-10.3,0-20.6,0-30.9C1173.3,145.3,1172.9,142.7,1174.8,140.7z"/>
	<path class="st101" d="M1222.7,139.8c0.4-1-0.4-2.5,1.8-2.9c-1.6,4.4,0.3,8.5,0.2,12.7c-0.1,3.2,1.3,4,4.2,3.9c8-0.1,16,0,24,0
		c0,0.3,0,0.6-0.1,0.9c0,0,0,0.1,0,0.1c-4.3,0.7-8.6,0.5-13,0.1c-3.6,0-7.3-0.3-10.9,0c-3.8,0.3-5.7-0.9-5.2-4.9
		c0.1-1.1,0-2.3-0.8-3.3C1222.9,144.2,1222.8,142,1222.7,139.8z"/>
	<path class="st153" d="M1122,132.8c1.2-0.3,2.4-0.6,3.6-0.9c0.7,0.4,0.8,0.9,0.4,1.5c3,4.9,2.2,10.4,2.1,15.7
		c1,3.3-3.2,5.2-2.1,8.4c0.2,1.9,1.3,3.7,0.4,5.8c-1,2.3-2.8,3.2-5,3.6c-2,0.3-3.4-0.9-4.4-2.6c-0.8-1.3-1.4-2.6-2.1-3.9
		c-0.6-1-0.5-2.4-1.6-3.1c-1.5-3.4-4-6-6.8-8.4c-2.4-2-4.2-4.6-0.6-7.3l0.1-0.2c1.2-1.3,3.1,0.2,4.3-1.1c0.5-3.3,3.4-3.6,5.7-4.7
		C1117.8,134.4,1120.4,134.6,1122,132.8z"/>
	<path class="st23" d="M1174.8,140.7c0,16.9-0.1,33.9-0.1,50.8c-6.4-9-12.7-17.9-19.1-26.9c1.3-0.6,2.2-1.5,2.2-3
		c-0.1-2.4,1-3.4,3.3-3c2.4,0.3,3.2,2.2,2.6,4c-2.5,6.9,3.4,10.8,6,16.1c0-8.5,0-17,0-25.5c0-1.5-1.3-2.1-2.5-2.9
		c-5.7-3.9-7-10.1-3.1-16c1.1-1.7-0.3-2.8-0.2-4.2c0.1-1.1,0.6-2.1,1.8-2c1,0,1,1.1,1.1,1.9c0.6,3.5-1.4,7.3,1.2,10.5
		C1170.3,140.5,1172.6,140.6,1174.8,140.7z"/>
	<path class="st154" d="M1147,76.5c0.2,0,0.4,0,0.7,0c0.1,1.7,0.2,3.3,0.3,5c0.8,13,0.2,26,0.3,38.9c0.1,11.2,0,22.3,0,33.5
		c0,1.6,0.6,3.3-0.6,4.8c-0.3,0-0.6,0-0.8-0.3c-0.4-0.5-0.8-1.1-1-1.7c-0.7-2.1-0.6-4.3-0.5-6.4c0.9-21.5-0.6-43.1,0-64.6
		c0.1-2.8,0-5.7,1.5-8.2C1146.8,77.2,1146.9,76.8,1147,76.5z"/>
	<path class="st155" d="M1147.6,158.7c0.1-21.8,0.1-43.5,0.2-65.3c0-4,0.1-8,0.2-12c0.2,0,0.5,0,0.7,0c0,26,0.1,52,0.1,78.1
		C1148.4,159.3,1148,159,1147.6,158.7z"/>
	<path class="st156" d="M1125.9,157.6c-3.9-4,1.9-5.5,2.1-8.4c1.1-0.5,0.3-2.2,1.7-2.5c3.8,2.4,6.1,6.2,8.4,9.9
		c-0.1,0.8-0.4,1.3-1.4,1C1133.2,157.6,1129.6,157.6,1125.9,157.6z"/>
	<path class="st94" d="M1136.8,157.5c0.3-0.3,0.6-0.6,0.9-0.9c-0.1-0.2-0.2-0.3-0.2-0.5c0.3-2-0.1-5.1,1.9-5.6
		c2.2-0.6,3.4,2.1,4.7,3.8c0.8,1.1,1.6,2.1,2.5,3.1c0,0.3,0.1,0.7,0.1,1C1143.5,158.1,1140.1,157.8,1136.8,157.5z"/>
	<path class="st52" d="M1076.9,170.4c0.3-0.3,0.7-0.7,1-1c1.7-0.3,1.8,0.9,2,2.1c0.4,0.8,1.1,1,1.9,1c-0.6,2.7,1.8,4.5,2.2,6.9
		C1080.4,177.3,1078.9,173.7,1076.9,170.4z"/>
	<path class="st157" d="M1245.8,134.3c-5.7,0.4-5.9,0.6-4.1,6.2c0,0.4-0.1,0.7-0.1,1.1c-0.4,0.7-1.3,0.5-1.8,0.9c-1,0-2,0-3,0.1
		c-3,1.1-4.4-0.8-5.6-3c-0.2-1.3-0.7-2.5-1-3.8c-0.9-3.5-0.9-7,2.9-8.9c3.4-1.7,7.8-0.1,10.1,3.6c0.6,1,0.8,2.2,1.7,3
		C1245.2,133.7,1245.5,134,1245.8,134.3z"/>
	<path class="st101" d="M1239.8,142.4c0.4-0.7,1.1-0.9,1.8-0.9c0.7,6.5,1.7,7.4,8.2,8c1,0.1,2,0.3,2.9,0.4c0,0.5,0.1,0.9,0.1,1.4
		C1243.3,151.8,1243.3,151.8,1239.8,142.4z"/>
	<path class="st0" d="M1146.7,157.4c-1.7,0.2-2.8-0.6-3.4-2.2c-0.7-1.7-2-3-3.9-4.6c0.2,2.5-0.6,4.3-1.6,6c-3-3.1-5.8-6.3-8-10
		c0-1,0-2-0.1-3c-0.1-1.6-2.2-4,0.4-4.5c1.8-0.3,4.5,0.6,5.8,3c0.6,1.2,1,2.5,1.8,3.5c0.8,0.9,1,2.8,2.8,2.4c1.6-0.3,2.5-1.5,3.1-3
		c1.7-3.8,1.8-7.9,1.2-11.8c-1.4-9.9-2.1-19.8-1.9-29.7c0.1-6,0.1-12,0-18c-0.1-3.4,0.9-6.2,3.9-8.1
		C1146.7,104.2,1146.7,130.8,1146.7,157.4z"/>
	<path class="st0" d="M1125.9,133.5c-0.1-0.5-0.2-1-0.4-1.5c-0.3-0.6-0.4-1.1,0.2-1.5c0.6,0,1.3,0,1.9,0c1.2,0.1,2.9-0.4,2.8,1.6
		c-0.1,1.6-1.6,1.2-2.7,1.3C1127.2,133.5,1126.6,133.5,1125.9,133.5z"/>
	<path class="st158" d="M1113.6,157.4c-7.2,0-14.4,0.1-21.6,0.1c0,0-0.3,0-0.3,0l-0.3-0.1c-6-4.9-9.7-11.8-14.8-17.6
		c-0.6-0.6-0.4-1.5,0.1-2.3c8.6,0,17.3-0.1,25.9-0.1c1,1.4,2.1,2.8,3.1,4.1c-2.5,3.4-0.7,5.5,2.2,7.2
		C1111.3,150.7,1113.6,153.3,1113.6,157.4z"/>
	<path class="st96" d="M1104.4,130.6c1.6,0.3,2.8,1.2,3,2.8c0.2,1.4-1.1,2-2.2,2.3c-2,0.5-2-1.3-2.3-2.4
		C1102.7,132.1,1102.8,130.9,1104.4,130.6z"/>
	<path class="st96" d="M1111,141.6c-0.4,1.1-0.8,2.5-2.2,1c-0.9-1-1.8-1.2-2.9-1.1c1.3-2.1,2.5-4.2,5.1-4.9
		C1111.6,138.2,1111.4,139.9,1111,141.6z"/>
	<path class="st159" d="M1111,141.6c0-1.7,0-3.4,0-5c1.5-0.9,3.2-1.3,5-0.9C1114.9,138,1110.8,138,1111,141.6z"/>
	<path class="st160" d="M1078.1,320.7c-0.4-0.7-0.7-1.5-1.1-2.2c1.4-2.6-1.1-6.5,2.8-8.3C1079.6,313.8,1079.2,317.3,1078.1,320.7z"
		/>
	<path class="st101" d="M1231.7,139.5c1.6,1.2,3,2.7,5.1,3c-0.9,1.5-2,2.9-2.1,4.9c-0.1,3.4-2.8,3.4-5.1,2.9
		c-2.6-0.5-3.5-2.8-2.2-4.9c1.6-2.5,0.5-5.6,2.2-7.9C1230.9,137.6,1231.6,138.3,1231.7,139.5z"/>
	<path class="st161" d="M1231.7,139.5c-0.7-0.7-1.3-1.4-2-2.1c-0.8-2.8-2.9-5.4-0.7-8.4c1.9-2.6,4.2-5.2,7.7-4.3
		c4.3,1.1,8,3.4,8.1,8.7c-1.9,0.1-1.9-1.5-2.5-2.6c-2.1-3.6-5.6-4.5-9-2.9c-3.8,1.8-3,5.4-1.7,8.7
		C1232,137.7,1233.2,138.5,1231.7,139.5z"/>
	<path class="st162" d="M1259.8,113.6c0.7,0,1.3,0,2,0c-0.4,2-0.9,3.7,0.2,6c1.9,3.7,0.8,8.1,0.6,12.1c-0.1,1.8-1.8,1.6-3.1,1.7
		c-1.8,0.1-2.8-0.7-2.7-2.6C1257.1,125,1255.3,118.7,1259.8,113.6z"/>
	<path class="st163" d="M1071.7,147.5c7.2-2.7,8.6,4.2,12,7.5c2.6,2.5,0.8,5.1-0.9,7.4C1078.7,157.8,1074.4,153.3,1071.7,147.5z"/>
	<path class="st114" d="M1079.8,171.5c-0.7-0.7-1.3-1.4-2-2.1c-0.4-1-0.7-1.9-1.1-2.9c1.2-0.4,2.6-1.8,3.5-0.4
		C1081.3,167.7,1081.4,169.8,1079.8,171.5z"/>
	<path class="st163" d="M1076.8,137.6c4.6,6,9.2,12.1,13.8,18.1c0.4,0.5,0.6,1.1,0.9,1.7c-1.2,0.1-2.2-0.2-3.2-1
		c-4.8-3.8-7-10-12.4-13.3c-1.7-1-1.2-3.6,0-5.4C1076.1,137.6,1076.5,137.6,1076.8,137.6z"/>
	<path class="st136" d="M1234.9,314.2c0-1.6,0-3.3,0-4.9c1,2.1,1.5,4.9,4.9,4.1c-0.6,0.6-1.3,1.2-1.9,1.8c-0.7,0-1.5,0.1-2.2,0.1
		C1235.4,314.9,1235.2,314.6,1234.9,314.2z"/>
	<path class="st164" d="M1109.9,327.8c-3.8-0.2-6-2.3-5.9-6c0-3.4,2-5.6,5.6-5.7c3.8-0.1,6.1,2,6.2,5.7
		C1115.9,325.5,1113.7,327.6,1109.9,327.8z"/>
</g>
<g>
	<g>
		<g>
			<path class="st165" d="M636.6,413c4.2-8,14.4-31.6,20.2-80c7.3-62.1-26.1-102.9-34.3-124.9c-8.2-22,18-68.6-19.6-114.3
				C565.3,48,502.4,48.8,467.3,66.8s-80,36.7-116,2.4c-35.9-34.3-61.1-50.7-118.9-57.7c-60.6-7.4-156.9,31.1-150,112.8
				c6.7,80.5-50.1,69.9-65.9,146.7c-18.7,91,28.6,134.4,33.7,142.1H636.6z"/>
			<g>
				<rect x="69.8" y="259.6" class="st166" width="457.6" height="156.6"/>
				<g>
					<g>
						<polygon class="st167" points="535.5,416.2 526.2,416.2 526.2,259.6 71.1,259.6 71.1,416.2 61.7,416.2 61.7,250.3 
							535.5,250.3 						"/>
					</g>
					<g>
						<rect x="66.4" y="330" class="st167" width="464.5" height="9.3"/>
					</g>
					<g>
						<g>
							<rect x="209.9" y="254.9" class="st167" width="9.3" height="158.1"/>
						</g>
						<g>
							<rect x="378" y="254.9" class="st167" width="9.3" height="158.1"/>
						</g>
					</g>
				</g>
			</g>
			<g>
				<g>
					<path class="st168" d="M97.5,415.7c0,0-46.7-101.5-29.2-134.2c17.5-32.7,91-24.5,107.4,5.8c16.3,30.3,40.9,128.4,40.9,128.4
						H97.5z"/>
					<path class="st169" d="M175.7,287.4c-2.4-4.5-6-8.4-10.5-11.9c-13.6-5.5-41.1-13.3-58.2,3.7c-18.9,18.9,20.2,103,40.1,136.5
						h69.5C216.6,415.7,192.1,317.7,175.7,287.4z"/>
					<g>
						<path class="st169" d="M592.4,415.7c0,0,46.7-101.5,29.2-134.2c-17.5-32.7-91-24.5-107.4,5.8
							c-16.3,30.3-40.9,128.4-40.9,128.4H592.4z"/>
						<path class="st168" d="M531.2,271.2c-7.5,4.3-13.5,9.7-17,16.1c-16.3,30.3-40.9,128.4-40.9,128.4h77
							c16.1-34.7,47.3-107.6,36.2-129.3C578.6,270.9,553.1,269.4,531.2,271.2z"/>
					</g>
					<g>
						<g>
							<path class="st170" d="M356.6,356.2c0,0,9.2,2,13.9,2c4.8,0,18.4-7.2,21.1-4.6c2.7,2.7-10.4,6.2-7.6,9
								c2.8,2.8,25.9,3.8,23.7,6c-2.2,2.2-15.1,1.2-15.1,1.2s16.1,1.6,16.1,3.8c0,2.2-15.9,0.8-15.9,0.8s14.1,2,12.1,3.9
								c-1.9,1.9-13.3,0-13.3,0s10.1,1.5,7.5,4c-0.8,0.8-16.5,0.2-23.5-3c-7-3.2-10-6.8-11.3-6.8c-1.3,0-14.6-2.4-14.6-2.4
								L356.6,356.2z"/>
							<path class="st171" d="M268,242.8c0,0,11,73.7,26.5,84s64.7,24.3,64.7,24.3s2.9,17.6-8.8,27.2c0,0-55.9-11-75.7-25
								c-19.8-14-43.4-98.5-40.4-107.3C237.1,237.1,268,242.8,268,242.8z"/>
						</g>
						<g>
							<g>
								<path class="st172" d="M281.1,228.8c-0.4,0-0.7-0.1-0.7-0.1l0.5-2.1c0.1,0,1.4,0.2,3-1.3c3.2-3.2,7.6-14.1,1.2-51.7l2.2-0.4
									c6.3,36.9,2.4,49.6-1.9,53.8C283.6,228.5,282,228.8,281.1,228.8z"/>
							</g>
							<g>
								<path class="st173" d="M308.1,181.1c0.8-8.8,0.8-18.1,0-26.2c-1.6-17-19.7-21-19.7-21s-31.3-14.3-44.5,12.6
									c-13.2,26.8-1.2,45.1-2.1,51.2c-1,6.1-7.5,23-7.5,23l28.1,14.7c0,0,2.5-11.1,3.3-16.1c0.8-4.9,6.4-6,6.4-6
									c10.3,4,22.1,6.6,30.1-7.8c1.7-3,3-7,4-11.5c1.5-0.1,4.7-0.4,5.9-1.6C313.2,191.2,309.7,184.1,308.1,181.1z"/>
								<path class="st174" d="M303.1,198.4l-8.9-2.5c0,0,0.3,8.4,3.1,8.4S303.1,198.4,303.1,198.4z"/>
								<circle class="st172" cx="301.5" cy="176" r="2.9"/>
								<path class="st172" d="M294.2,169.7c0,0,6-1.2,12.2,0c0,0,1.2-4.8-3.6-4.8C298,164.9,294.2,169.7,294.2,169.7z"/>
								<path class="st168" d="M310.2,127.9c6-1,11.8,2.4,13.6,8.2c1.2,4,2,8.5,1.3,12.9c-1.8,11.4-14,14.1-23.8,11.9
									c-8-1.8-14.7-7.6-14.7-7.6s0.2,11.4-5.7,15.8c-5.9,4.3-3.7,9.7-6.4,9.2c-2.7-0.4,1.5-11.2-5.4-13.1
									c-6.8-1.8-8.5,10.6-4,14.6l-1.5,4.9c0,0-6.7,9.8-14.6,10.1c-7.9,0.3-11.8-3.4-16.4-19c-4.6-15.5-6.2-33.4,2.3-45.3
									c8.5-11.9,19-7.2,19.3-9.1c0.3-1.9,11.2-12,26.8-4C290.5,122.5,299.2,129.8,310.2,127.9z"/>
								<path class="st175" d="M261.7,197.7c-3.1,3.8,4,21.6,4,21.6c0.8-4.9,6.4-6,6.4-6S259.1,203.3,261.7,197.7z"/>
								<path class="st176" d="M324.9,149.9c-22,8.5-47.5-5.6-51.6-10.3c-0.9,7-1,13.5-9.6,22.6c-14,14.2-26.9,6.7-34.3-0.5
									c0.7,4.8,1.8,9.6,3.1,14.2c4.6,15.5,8.6,19.3,16.4,19c7.9-0.3,14.6-10.1,14.6-10.1l1.5-4.9c-4.5-3.9-2.8-16.4,4-14.6
									c6.8,1.9,2.7,12.6,5.4,13.1c2.7,0.4,0.4-4.9,6.4-9.2c5.9-4.3,5.7-15.8,5.7-15.8s6.7,5.8,14.7,7.6
									C310.8,163.1,322.6,160.6,324.9,149.9z"/>
							</g>
							<g>
								<g>
									<path class="st172" d="M331.6,341.6c-2.6,0-5.3-0.3-8.1-0.9c-37.6-7.7-43.4-101.8-43.9-112.3c-11.6-4.1-12.9-49.8-13-55.1
										l2.2,0c0.3,14.3,3.1,51.7,12.1,53.2l0.9,0.1l0,0.9c0,1,4.9,103.4,42.2,111c27.2,5.6,42.9-18.5,56.6-39.7
										c5.2-8,10.1-15.5,15.1-20.6c18.1-18.1,29.5-18.4,29.9-18.4l0,2.2c-0.1,0-11,0.4-28.4,17.8c-4.9,4.9-9.7,12.3-14.8,20.2
										C370.3,318.8,355.5,341.6,331.6,341.6z"/>
								</g>
								<g>
									<path class="st174" d="M270.3,173.4c0,1.5-1.2,2.6-2.6,2.6c-1.5,0-2.6-1.2-2.6-2.6c0-1.5,1.2-2.6,2.6-2.6
										C269.1,170.7,270.3,171.9,270.3,173.4z"/>
								</g>
							</g>
						</g>
						<g>
							<path class="st174" d="M229.2,218.1c0,0,26.8,6.7,45.9,33.8c16.2,23,16.5,163.6,16.5,163.6l-118.2,0.6
								c0,0,11.3-32.4,16.1-63.2c5.3-33.5,6.1-85.1,14.7-105.6C217.3,216.1,229.2,218.1,229.2,218.1z"/>
							<path class="st171" d="M247.3,394.3c-11.8,1.1-24.2-9.7-24.7-1.1c-0.3,4.6-2.8,14.1-3.6,22.7l72.6-0.4
								c0,0-1.6-137.4-17.8-160.4c-6.6-9.4-25.1-17.8-31.9-21.8c-16.6,3.6-20.5,3.2-27.4,15.8c0,0-5.9,10.2,15.1,42.5
								s45.7,51.6,51.1,61.3c5.4,9.7,3.8,25.8-7,28.5c-10.8,2.7-43.5-33.3-41.4-23.1C234.4,368.5,259.1,393.3,247.3,394.3z"/>
							<path class="st171" d="M229.2,218.1c0,0,13.9,8.7,22.7,25.6c8.8,16.9,5.1,18.4,5.1,18.4l17.6,5.1l-14.7,8.8l30.3,87.9
								c0,0-2.4-78.3-9-99.6c-6.6-21.3-44.1-54.4-44.1-54.4L229.2,218.1z"/>
						</g>
					</g>
					<g>
						<g>
							<path class="st177" d="M346.2,382.5c0,0-2.3-0.3,2.1,7.1c4.4,7.4,9.7,10.8,11.3,9.9c1.6-0.8,4.8-5.5,1.9-11.4
								C358.7,382.3,346.2,382.5,346.2,382.5z"/>
							<path class="st178" d="M362.4,396.1c0,0-6.7,3.3-7.8,4.2c-1.1,0.9-3.4,5.4-10,9.1c-5.8,3.2-10.5,6.9-12,5
								c-1.6-1.8,4.6-5.4,6.3-7c1.8-1.5,2.3-4.3,2.3-4.3s-3.9-0.3-8.8,1c-4.9,1.3-10.4,9.5-12.4,8.7c-3.1-1.2,5.5-10.6,5.5-10.6
								s-8.8,8.8-10.1,7.2c-1.4-1.6,7.5-10.9,7.5-10.9s4.8-4.6,9.7-6.6c4.9-1.9,10.7-2.2,17.1-4c6.4-1.8,14.5-10.3,14.5-10.3
								s12.5,7.8,10,11.4C373,390.8,362.4,396.1,362.4,396.1z"/>
							<path class="st179" d="M444,238.6c0,0-18.9,6.1-26.7,35.4c-7.8,29.3-12.4,58.4-19.1,67.4c-6.7,9-52,41.1-52,41.1
								s6.6,2.1,11.4,7.6c4.7,5.5,2.1,9.4,2.1,9.4s53.5-21,65.4-44.1c11.9-23.1,20.6-89.1,21.5-101.9
								C447.5,240.7,444,238.6,444,238.6z"/>
							<path class="st177" d="M425,355.4c8.9-17.2,16-58.4,19.4-83.5c-8.5,0.1-16.1,1.6-16.1,1.6s-0.7,52.7-8.2,68.8
								c-6.4,13.6-48.9,40.3-62.1,48.3c4.1,5.2,1.6,8.8,1.6,8.8S413.1,378.5,425,355.4z"/>
							<path class="st180" d="M460.5,231.3c0,0,5.9-2.9,7.8-4.7c1.9-1.9,1-25,1-25h29.4c0,0-2.6,22.6,0,25.2
								c2.6,2.6,5.5,2.4,5.5,2.4s5.8,16.9-14,24.1c-19.7,7.2-33.4-5.2-33.4-13.1S460.5,231.3,460.5,231.3z"/>
							<path class="st175" d="M498.7,202.2c0-0.4,0.1-0.7,0.1-0.7h-29.4c0,0,0.5,14.8-0.2,21.7C478.2,221.9,494.3,217.5,498.7,202.2
								z"/>
							<path class="st177" d="M460.5,231.3c0,0-7.8,17.3,15.9,19.1c23.7,1.8,27.8-21.3,27.8-21.3s22.9,2.1,31.8,21.6
								c8.9,19.6-2.7,165.5-2.7,165.5H406.4c0,0,18.7-47.8,18.7-76.8c0-29,2-75.8,8.7-93.2C436.1,240,460.5,231.3,460.5,231.3z"/>
							<path class="st177" d="M513.2,275.5c0,0,0,33.7,0,54s-25.1,24.8-23.1,31.5c2,6.7,15.2,10.8,12.3,19.5
								c-2.8,8.7-33.3,8.9-33.3,26.1c0,3.2,0.9,6.4,2.6,9.6h61.6c0,0,8-101.5,5.6-146.5C530.4,267.2,521.5,268.5,513.2,275.5z"/>
							<path class="st174" d="M462.1,230.5c0,0-3.4-2-6.3,2.6c-2.9,4.6-4.9,19.2,15.5,21.5c20.3,2.3,29.8-8,31.8-11.7
								c2-3.7,4.6-10.3,4-12.9c-0.6-2.6-5.2-1.4-5.2-1.4s1.4,20.5-24.1,20.8C452.2,249.7,462.1,230.5,462.1,230.5z"/>
							<path class="st178" d="M472.6,371.2c0,0-12.9,1.5-20.9,0.5c-8-1-9.6-1.6-19.8,1.7c-10.2,3.3-28.8,15-24.8,16.8
								c4,1.7,16-6.4,16-6.4s-13.9,9.8-12.5,11.6c1.4,1.8,15.7-7.4,15.7-7.4s-10.7,10.4-7.4,10.8c3.3,0.4,12.1-8.1,12.1-8.1
								s-8,8.6-4.9,9c3.1,0.4,10.1-7.3,10.1-7.3s10.5-0.4,13.9-3.1c3.5-2.7,5.9-3.8,8.3-3.5c2.5,0.3,18.4,1.4,18.4,1.4L472.6,371.2z
								"/>
							<path class="st177" d="M521.2,234.9c0,0,18.1,6.6,28,37.5c10,31.3,15.5,96.9,4.7,108.7c-10.8,11.8-86.1,12-86.1,12
								s-3.5-13.4-4-23.3c0,0,62-8.9,65.3-12.5c3.3-3.6-17.7-77.7-18.5-95.3C509.9,244.3,521.2,234.9,521.2,234.9z"/>
							<path class="st177" d="M531.5,242c0.1,0.7,0.3,1.4,0.5,2.1c0,0,15.3,72.2,17.5,98.3c2.2,26.1-0.6,33.8-25.6,38.1
								c-18,3.1-44.7,2.8-58.3,2.4c1.1,5.7,2.2,10.1,2.2,10.1s75.3-0.2,86.1-12c10.8-11.8,5.3-77.4-4.7-108.7
								C544.2,256.9,537.2,247.5,531.5,242z"/>
							<g>
								<path class="st177" d="M463.8,370.3c-0.3,0-0.5-0.2-0.5-0.5c-0.1-0.3,0.2-0.6,0.4-0.6c0.5-0.1,52.9-8.9,64.5-12
									c8.7-2.3,15.3,1.9,18.2,4.5c-0.9-1.9-2.8-4.6-6.5-6.6c-1.6-0.9-2.3-1.6-2.2-2.2c0-0.2,0.1-0.7,0.8-0.9c2-0.7,8.3,0.5,10.8,3
									c0.2,0.2,0.2,0.6,0,0.8c-0.2,0.2-0.6,0.2-0.8,0c-2.4-2.4-8.6-3.3-9.7-2.7c0.1,0.2,0.5,0.5,1.6,1.2c6.7,3.6,7.9,9.3,7.9,9.5
									c0,0.2-0.1,0.5-0.3,0.6c-0.2,0.1-0.5,0-0.7-0.1c-0.1-0.1-7.6-8.8-18.9-5.8C516.9,361.4,464.4,370.2,463.8,370.3
									C463.9,370.3,463.9,370.3,463.8,370.3z"/>
							</g>
							<g>
								<path class="st177" d="M515.8,291.3c-0.2,0-0.5-0.2-0.5-0.4c-9.7-32.8-3.3-42.9-3-43.3c0.2-0.2,0.5-0.3,0.8-0.1
									c0.2,0.2,0.3,0.5,0.1,0.8l0,0c-0.1,0.1-6.4,10.2,3.2,42.4c0.1,0.3-0.1,0.6-0.4,0.7C515.9,291.3,515.9,291.3,515.8,291.3z"/>
							</g>
						</g>
						<g>
							<path class="st180" d="M446.7,148.2c0,0-9.4,31.5,1.4,57.2c6.4,15.2,18.6,12.8,29.9,9.7c12.4-3.4,27.1-14.6,33.9-33.8
								c6.9-19.2,7.5-40.3-14.2-49.4C476,122.9,452,134.3,446.7,148.2z"/>
							<path class="st181" d="M454,181.7c0,1.5-1.1,2.7-2.6,2.8c-1.5,0-2.7-1.1-2.8-2.6c0-1.5,1.1-2.7,2.6-2.8
								C452.7,179,453.9,180.2,454,181.7z"/>
							<path class="st181" d="M444.1,176c0,0,5.7-1.3,11.6-0.4c0,0,1-4.6-3.6-4.5C447.6,171.3,444.1,176,444.1,176z"/>
							<path class="st181" d="M470.1,182.3c0,1.5,1.3,2.7,2.8,2.6c1.5,0,2.7-1.3,2.6-2.8c0-1.5-1.3-2.7-2.8-2.6
								C471.2,179.5,470,180.8,470.1,182.3z"/>
							<path class="st181" d="M479.5,176c0,0-5.7-0.9-11.6,0.4c0,0-1.3-4.5,3.3-4.7S479.5,176,479.5,176z"/>
							<path class="st170" d="M455.2,193.2c0,0,4.6,1.4,9.1,0c0,0-2,2.1-5.5,2.1C455.3,195.3,455.2,193.2,455.2,193.2z"/>
							<path class="st174" d="M456.2,199.6l13-0.6c0,0-5,8.2-9.4,6.2C455.4,203.1,456.2,199.6,456.2,199.6z"/>
							<path class="st181" d="M487.1,152.9c0,0-17.5,10.3-37.4,0.6c0,0-6.1,3.1-6.1,10.6c0,5.9-11.3-8.7-7.7-22.4
								c3.6-13.7,39-22.5,51.5-20.7c12.6,1.8,14.1,8.8,16.3,12.5c0,0,9.9,1,12.8,12.8c2.6,10.8,3.1,31.9-8.3,47.7
								c-1.6,2.2-5,1.4-5.4-1.2c-0.2-1.4-0.3-6.6,0.6-6.4c4.7,0.9,11.2-10.4,7.2-14.9c-5.7-6.3-10.4,1.6-10.4,6.7
								c0,5.3-4.7-4.6-5.1-9.9C494.8,163.1,488.2,162.4,487.1,152.9z"/>
						</g>
					</g>
					<g>
						<g>
							<g>
								<path class="st182" d="M441.5,245.2h-5.3V277h5.3c5.9,0,10.6-7.1,10.6-15.9C452.1,252.3,447.4,245.2,441.5,245.2z"/>
								<ellipse class="st183" cx="436.2" cy="261.1" rx="10.6" ry="15.9"/>
							</g>
							<g>
								<path class="st182" d="M434,250.6h-7v20.9h7c3.9,0,7-4.7,7-10.5C441,255.3,437.9,250.6,434,250.6z"/>
								<ellipse class="st183" cx="427.1" cy="261.1" rx="7" ry="10.5"/>
							</g>
						</g>
						<path class="st170" d="M380.4,277.8c0,0,11-1.6,15.9-5.7c4.8-4.1,11.5-15.6,17.4-17.8c5.9-2.2,21.2-8.5,21.5-5.6
							c0.4,3-12.6,8.9-12.6,8.9s16.3-5.2,15.6-1.5c-0.7,3.7-15.2,7.4-15.2,7.4s16.7,0.4,13.4,3s-13,1.9-13,1.9s12.2,3,9.3,4.5
							c-3,1.5-10,0.4-10,0.4s-10,11.5-21.5,11.1l-15.2,8.2L380.4,277.8z"/>
						<path class="st174" d="M216.3,241.5c-2.7,5.2-2.6,11.4-0.1,16.7c8.9,18.3,49.9,67.3,73.8,69.4c20.7,1.8,101.4-27.9,101.4-27.9
							s2.2-20.6-8.8-23.5l-87.5,17.6c0,0-40.1-50.4-48.4-58.7C240,228.2,222.7,229.4,216.3,241.5z"/>
						<path class="st171" d="M380.4,293.5c-7.4,4-83.6,20-90.1,26.6c-3.6,3.6-2.4,6-0.6,7.5c0.1,0,0.3,0,0.4,0
							c20.7,1.8,101.4-27.9,101.4-27.9s1.4-13.2-3.7-19.9C387.3,283.6,385.6,290.6,380.4,293.5z"/>
					</g>
					<g>
						<g>
							<path class="st183" d="M127.8,349.1h-3.9V340c0-2.5-2-4.4-4.4-4.4h-24c-2.5,0-4.4,2-4.4,4.4v9.1h-3.9V340
								c0-4.6,3.7-8.3,8.3-8.3h24c4.6,0,8.3,3.7,8.3,8.3V349.1z"/>
						</g>
						<rect x="53.5" y="346.9" class="st174" width="83.6" height="61"/>
						
							<rect x="137.1" y="346.9" transform="matrix(-1 -1.224647e-16 1.224647e-16 -1 298.8498 754.8584)" class="st183" width="24.6" height="61"/>
						<circle class="st184" cx="95.3" cy="377.4" r="20.3"/>
						<g>
							<rect x="89.1" y="363.8" class="st174" width="13" height="27.3"/>
							
								<rect x="89.1" y="363.8" transform="matrix(-1.836970e-16 1 -1 -1.836970e-16 472.9892 281.8691)" class="st174" width="13" height="27.3"/>
						</g>
					</g>
					<g>
						<path class="st183" d="M193.9,407.9H168v-77.9c0-7.2,5.8-12.9,12.9-12.9h0c7.2,0,12.9,5.8,12.9,12.9V407.9z"/>
						<path class="st182" d="M198.7,407.9h-25.9v-77.9c0-7.2,5.8-12.9,12.9-12.9h0c7.2,0,12.9,5.8,12.9,12.9V407.9z"/>
						<rect x="181" y="324.7" class="st174" width="10" height="83.3"/>
						<g>
							<g>
								<rect x="182.8" y="326.3" class="st172" width="0.5" height="81.6"/>
							</g>
							<g>
								<g>
									<rect x="184.4" y="328.1" class="st172" width="4.2" height="0.5"/>
								</g>
								<g>
									<rect x="184.4" y="329.6" class="st172" width="2.5" height="0.5"/>
								</g>
								<g>
									<rect x="184.4" y="331.1" class="st172" width="2.5" height="0.5"/>
								</g>
								<g>
									<rect x="184.4" y="332.6" class="st172" width="2.5" height="0.5"/>
								</g>
								<g>
									<rect x="184.4" y="334.1" class="st172" width="2.5" height="0.5"/>
								</g>
							</g>
							<g>
								<g>
									<rect x="184.4" y="335.6" class="st172" width="4.2" height="0.5"/>
								</g>
								<g>
									<rect x="184.4" y="337.1" class="st172" width="2.5" height="0.5"/>
								</g>
								<g>
									<rect x="184.4" y="338.6" class="st172" width="2.5" height="0.5"/>
								</g>
								<g>
									<rect x="184.4" y="340.1" class="st172" width="2.5" height="0.5"/>
								</g>
								<g>
									<rect x="184.4" y="341.6" class="st172" width="2.5" height="0.5"/>
								</g>
							</g>
							<g>
								<g>
									<rect x="184.4" y="343.1" class="st172" width="4.2" height="0.5"/>
								</g>
								<g>
									<rect x="184.4" y="344.6" class="st172" width="2.5" height="0.5"/>
								</g>
								<g>
									<rect x="184.4" y="346.1" class="st172" width="2.5" height="0.5"/>
								</g>
								<g>
									<rect x="184.4" y="347.6" class="st172" width="2.5" height="0.5"/>
								</g>
								<g>
									<rect x="184.4" y="349.1" class="st172" width="2.5" height="0.5"/>
								</g>
							</g>
							<g>
								<g>
									<rect x="184.4" y="350.6" class="st172" width="4.2" height="0.5"/>
								</g>
								<g>
									<rect x="184.4" y="352.1" class="st172" width="2.5" height="0.5"/>
								</g>
								<g>
									<rect x="184.4" y="353.6" class="st172" width="2.5" height="0.5"/>
								</g>
								<g>
									<rect x="184.4" y="355.1" class="st172" width="2.5" height="0.5"/>
								</g>
								<g>
									<rect x="184.4" y="356.6" class="st172" width="2.5" height="0.5"/>
								</g>
							</g>
							<g>
								<g>
									<rect x="184.4" y="358.1" class="st172" width="4.2" height="0.5"/>
								</g>
								<g>
									<rect x="184.4" y="359.6" class="st172" width="2.5" height="0.5"/>
								</g>
								<g>
									<rect x="184.4" y="361.1" class="st172" width="2.5" height="0.5"/>
								</g>
								<g>
									<rect x="184.4" y="362.6" class="st172" width="2.5" height="0.5"/>
								</g>
								<g>
									<rect x="184.4" y="364.1" class="st172" width="2.5" height="0.5"/>
								</g>
							</g>
							<g>
								<g>
									<rect x="184.4" y="365.6" class="st172" width="4.2" height="0.5"/>
								</g>
								<g>
									<rect x="184.4" y="367.1" class="st172" width="2.5" height="0.5"/>
								</g>
								<g>
									<rect x="184.4" y="368.6" class="st172" width="2.5" height="0.5"/>
								</g>
								<g>
									<rect x="184.4" y="370.1" class="st172" width="2.5" height="0.5"/>
								</g>
								<g>
									<rect x="184.4" y="371.6" class="st172" width="2.5" height="0.5"/>
								</g>
							</g>
							<g>
								<g>
									<rect x="184.4" y="373.1" class="st172" width="4.2" height="0.5"/>
								</g>
								<g>
									<rect x="184.4" y="374.6" class="st172" width="2.5" height="0.5"/>
								</g>
								<g>
									<rect x="184.4" y="376.1" class="st172" width="2.5" height="0.5"/>
								</g>
								<g>
									<rect x="184.4" y="377.6" class="st172" width="2.5" height="0.5"/>
								</g>
								<g>
									<rect x="184.4" y="379.1" class="st172" width="2.5" height="0.5"/>
								</g>
							</g>
							<g>
								<g>
									<rect x="184.4" y="380.7" class="st172" width="4.2" height="0.5"/>
								</g>
								<g>
									<rect x="184.4" y="382.1" class="st172" width="2.5" height="0.5"/>
								</g>
								<g>
									<rect x="184.4" y="383.6" class="st172" width="2.5" height="0.5"/>
								</g>
								<g>
									<rect x="184.4" y="385.1" class="st172" width="2.5" height="0.5"/>
								</g>
								<g>
									<rect x="184.4" y="386.6" class="st172" width="2.5" height="0.5"/>
								</g>
							</g>
							<g>
								<g>
									<rect x="184.4" y="388.2" class="st172" width="4.2" height="0.5"/>
								</g>
								<g>
									<rect x="184.4" y="389.7" class="st172" width="2.5" height="0.5"/>
								</g>
								<g>
									<rect x="184.4" y="391.1" class="st172" width="2.5" height="0.5"/>
								</g>
								<g>
									<rect x="184.4" y="392.6" class="st172" width="2.5" height="0.5"/>
								</g>
								<g>
									<rect x="184.4" y="394.1" class="st172" width="2.5" height="0.5"/>
								</g>
							</g>
							<g>
								<g>
									<rect x="184.4" y="395.7" class="st172" width="4.2" height="0.5"/>
								</g>
								<g>
									<rect x="184.4" y="397.2" class="st172" width="2.5" height="0.5"/>
								</g>
								<g>
									<rect x="184.4" y="398.6" class="st172" width="2.5" height="0.5"/>
								</g>
								<g>
									<rect x="184.4" y="400.1" class="st172" width="2.5" height="0.5"/>
								</g>
								<g>
									<rect x="184.4" y="401.6" class="st172" width="2.5" height="0.5"/>
								</g>
							</g>
						</g>
						<g>
							<rect x="168" y="397.7" class="st168" width="73.2" height="10.2"/>
							<rect x="168" y="397.7" class="st169" width="58.6" height="10.2"/>
						</g>
					</g>
				</g>
				<path class="st181" d="M648.5,407.9H30.6c-4.6,0-8.2,3.7-8.2,8.2c0,4.6,3.7,8.2,8.2,8.2h617.9c4.6,0,8.2-3.7,8.2-8.2
					C656.7,411.6,653,407.9,648.5,407.9z"/>
			</g>
			<g>
				<rect x="106.3" y="107.2" class="st185" width="86.2" height="117.9"/>
				<rect x="111.4" y="114.2" class="st174" width="76" height="104"/>
				<path class="st177" d="M162.1,109.5c-1.8-0.3-3-2.1-2.4-3.9c0.6-1.9-0.8-3.9-2.9-3.9h-7.4h-7.4c-2,0-3.5,2-2.9,3.9
					c0.6,1.8-0.6,3.6-2.4,3.9l-5.7,0.9v5.9h18.4h18.4v-5.9L162.1,109.5z"/>
				<g>
					<rect x="120" y="126.2" class="st184" width="17.9" height="17.9"/>
					<polygon class="st174" points="121.6,131.8 123.9,131.8 129,137.6 137.1,127.5 129,139.8 					"/>
					<g>
						<rect x="141.1" y="128.6" class="st186" width="37.7" height="0.7"/>
					</g>
					<g>
						<polyline class="st186" points="141.1,135.5 141.1,134.9 178.8,134.9 178.8,135.5 						"/>
					</g>
					<g>
						<rect x="141.1" y="141.1" class="st186" width="37.7" height="0.7"/>
					</g>
				</g>
				<g>
					<rect x="120" y="148.4" class="st184" width="17.9" height="17.9"/>
					<polygon class="st174" points="121.6,153.9 123.9,153.9 129,159.7 137.1,149.7 129,162 					"/>
					<g>
						<rect x="141.1" y="150.7" class="st186" width="37.7" height="0.7"/>
					</g>
					<g>
						<polyline class="st186" points="178.8,157 178.8,157.6 141.1,157.6 141.1,157 						"/>
					</g>
					<g>
						<rect x="141.1" y="163.2" class="st186" width="37.7" height="0.7"/>
					</g>
				</g>
				<g>
					<rect x="120" y="170.5" class="st184" width="17.9" height="17.9"/>
					<polygon class="st174" points="121.6,176 123.9,176 129,181.8 137.1,171.8 129,184.1 					"/>
					<g>
						<rect x="141.1" y="172.9" class="st186" width="37.7" height="0.7"/>
					</g>
					<g>
						<polyline class="st186" points="178.8,179.1 178.8,179.8 141.1,179.8 141.1,179.1 						"/>
					</g>
					<g>
						<rect x="141.1" y="185.4" class="st186" width="37.7" height="0.7"/>
					</g>
				</g>
				<g>
					<rect x="120" y="192.6" class="st184" width="17.9" height="17.9"/>
					<polygon class="st174" points="121.6,198.2 123.9,198.2 129,204 137.1,193.9 129,206.2 					"/>
					<g>
						<rect x="141.1" y="195" class="st186" width="37.7" height="0.7"/>
					</g>
					<g>
						<polyline class="st186" points="178.8,201.3 178.8,201.9 141.1,201.9 141.1,201.3 						"/>
					</g>
					<g>
						<rect x="141.1" y="207.5" class="st186" width="37.7" height="0.7"/>
					</g>
				</g>
			</g>
			<g>
				<path class="st177" d="M562.8,86.9L562.8,86.9c-4.6-9.4-16.7-12.2-25-5.8l-1.8,1.4l-1.8-1.4c-8.3-6.4-20.4-3.6-25,5.8l0,0
					c-2.8,5.7-2.1,12.6,1.9,17.6l24.9,21.6l24.9-21.6C564.9,99.5,565.6,92.6,562.8,86.9z"/>
				<g>
					<path class="st174" d="M544.8,115L544.8,115c-0.4,0-0.7-0.2-0.8-0.6l-6.3-25.2l-7.7,21.3c-0.1,0.3-0.5,0.5-0.8,0.5
						c-0.4,0-0.7-0.3-0.7-0.6l-3.2-16.7l-3.4,8.5c-0.1,0.3-0.4,0.5-0.7,0.5h-25c-0.4,0-0.8-0.4-0.8-0.8c0-0.4,0.4-0.8,0.8-0.8h24.5
						l4.3-10.5c0.1-0.3,0.5-0.5,0.8-0.5c0.4,0,0.6,0.3,0.7,0.6l3.2,16.5l7.7-21.1c0.1-0.3,0.4-0.5,0.8-0.5c0.3,0,0.6,0.3,0.7,0.6
						l6.2,24.7l4.7-18.5c0.1-0.4,0.4-0.6,0.8-0.6c0,0,0,0,0,0c0.4,0,0.7,0.2,0.8,0.6l2.3,8.6H576c0.4,0,0.8,0.4,0.8,0.8
						c0,0.4-0.4,0.8-0.8,0.8h-23.3c-0.4,0-0.7-0.2-0.8-0.6l-1.7-6.3l-4.7,18.6C545.5,114.7,545.2,115,544.8,115z"/>
				</g>
			</g>
			<g>
				
					<ellipse transform="matrix(0.2272 -0.9739 0.9739 0.2272 254.3012 699.7108)" class="st184" cx="568" cy="189.6" rx="26.3" ry="26.3"/>
				<g>
					<rect x="559.9" y="171.9" class="st174" width="16.9" height="35.5"/>
					
						<rect x="559.9" y="171.9" transform="matrix(-1.836970e-16 1 -1 -1.836970e-16 757.9549 -378.6993)" class="st174" width="16.9" height="35.5"/>
				</g>
			</g>
			<g>
				
					<ellipse transform="matrix(0.1587 -0.9873 0.9873 0.1587 122.4038 278.7719)" class="st184" cx="224.8" cy="67.6" rx="30.8" ry="30.8"/>
				<g>
					<g>
						<path class="st177" d="M217.9,42.7c-4.7,0-8.6,3.8-8.6,8.6v12.3h17.1V51.3C226.5,46.5,222.7,42.7,217.9,42.7z"/>
						<path class="st174" d="M217.9,84.3c-4.7,0-8.6-3.8-8.6-8.6V63.5h17.1v12.3C226.5,80.5,222.7,84.3,217.9,84.3z"/>
					</g>
					<g>
						<path class="st177" d="M243.8,61c-3.3-3.4-8.7-3.5-12.1-0.3l-8.8,8.5l11.9,12.4l8.8-8.5C246.9,69.8,247,64.4,243.8,61z"/>
						<path class="st174" d="M213.7,89.8c-3.3-3.4-3.2-8.8,0.3-12.1l8.8-8.5l11.9,12.4l-8.8,8.5C222.4,93.3,217,93.2,213.7,89.8z"/>
					</g>
				</g>
			</g>
			<circle class="st185" cx="379.3" cy="143.6" r="30"/>
			<g>
				<g>
					
						<rect x="388.2" y="119.5" transform="matrix(0.7071 -0.7071 0.7071 0.7071 33.4116 320.1652)" class="st184" width="29.9" height="0.6"/>
				</g>
				
					<rect x="343.5" y="167" transform="matrix(0.7071 0.7071 -0.7071 0.7071 223.3796 -200.2536)" class="st174" width="19.8" height="5"/>
				
					<rect x="372.2" y="119.8" transform="matrix(0.7071 0.7071 -0.7071 0.7071 214.4162 -221.8894)" class="st183" width="5.8" height="56.2"/>
				
					<rect x="372.1" y="125.8" transform="matrix(0.7071 0.7071 -0.7071 0.7071 213.1005 -225.0722)" class="st174" width="12.2" height="37.8"/>
				
					<rect x="359.4" y="156.6" transform="matrix(0.7071 0.7071 -0.7071 0.7071 218.3852 -212.3136)" class="st183" width="12.2" height="1.7"/>
				
					<rect x="353.2" y="157.3" transform="matrix(0.7071 0.7071 -0.7071 0.7071 219.3731 -209.9264)" class="st174" width="19.8" height="5"/>
				<g>
					<g>
						<g>
							
								<rect x="388.1" y="129.5" transform="matrix(0.7071 -0.7071 0.7071 0.7071 20.5648 313.2921)" class="st172" width="0.6" height="4.7"/>
						</g>
						<g>
							
								<rect x="386.3" y="130.9" transform="matrix(0.7071 -0.7071 0.7071 0.7071 19.6404 312.1297)" class="st172" width="0.6" height="2.9"/>
						</g>
						<g>
							
								<rect x="385.1" y="132.1" transform="matrix(0.7071 -0.7071 0.7071 0.7071 18.4404 311.6327)" class="st172" width="0.6" height="2.9"/>
						</g>
						<g>
							
								<rect x="383.9" y="133.3" transform="matrix(0.7071 -0.7071 0.7071 0.7071 17.2409 311.1358)" class="st172" width="0.6" height="2.9"/>
						</g>
						<g>
							
								<rect x="382.7" y="134.5" transform="matrix(0.7071 -0.7071 0.7071 0.7071 16.0366 310.6297)" class="st172" width="0.6" height="2.9"/>
						</g>
					</g>
					<g>
						<g>
							
								<rect x="382.1" y="135.5" transform="matrix(0.7071 -0.7071 0.7071 0.7071 14.5328 310.7935)" class="st172" width="0.6" height="4.7"/>
						</g>
						<g>
							
								<rect x="380.3" y="137" transform="matrix(0.7071 -0.7071 0.7071 0.7071 13.6127 309.6403)" class="st172" width="0.6" height="2.9"/>
						</g>
						<g>
							
								<rect x="379.1" y="138.2" transform="matrix(0.7071 -0.7071 0.7071 0.7071 12.4085 309.1342)" class="st172" width="0.6" height="2.9"/>
						</g>
						<g>
							
								<rect x="377.9" y="139.4" transform="matrix(0.7071 -0.7071 0.7071 0.7071 11.209 308.6373)" class="st172" width="0.6" height="2.9"/>
						</g>
						<g>
							
								<rect x="376.7" y="140.6" transform="matrix(0.7071 -0.7071 0.7071 0.7071 10.009 308.1403)" class="st172" width="0.6" height="2.9"/>
						</g>
					</g>
					<g>
						
							<rect x="376.1" y="141.5" transform="matrix(0.7071 -0.7071 0.7071 0.7071 8.5009 308.295)" class="st172" width="0.6" height="4.7"/>
					</g>
				</g>
				<g>
					<g>
						<g>
							
								<rect x="374.2" y="143" transform="matrix(0.7071 -0.7071 0.7071 0.7071 7.5725 307.1236)" class="st172" width="0.6" height="2.9"/>
						</g>
						<g>
							
								<rect x="373" y="144.2" transform="matrix(0.7071 -0.7071 0.7071 0.7071 6.3763 306.635)" class="st172" width="0.6" height="2.9"/>
						</g>
						<g>
							
								<rect x="371.8" y="145.4" transform="matrix(0.7071 -0.7071 0.7071 0.7071 5.181 306.1479)" class="st172" width="0.6" height="2.9"/>
						</g>
						<g>
							
								<rect x="370.6" y="146.6" transform="matrix(0.7071 -0.7071 0.7071 0.7071 3.9771 305.6418)" class="st172" width="0.6" height="2.9"/>
						</g>
					</g>
					<g>
						<g>
							
								<rect x="370.1" y="147.5" transform="matrix(0.7071 -0.7071 0.7071 0.7071 2.4688 305.7961)" class="st172" width="0.6" height="4.7"/>
						</g>
						<g>
							
								<rect x="368.2" y="149" transform="matrix(0.7071 -0.7071 0.7071 0.7071 1.5443 304.6335)" class="st172" width="0.6" height="2.9"/>
						</g>
						<g>
							
								<rect x="367" y="150.2" transform="matrix(0.7071 -0.7071 0.7071 0.7071 0.3485 304.1462)" class="st172" width="0.6" height="2.9"/>
						</g>
						<g>
							
								<rect x="365.8" y="151.4" transform="matrix(0.7071 -0.7071 0.7071 0.7071 -0.8586 303.6312)" class="st172" width="0.6" height="2.9"/>
						</g>
						<g>
							
								<rect x="364.6" y="152.6" transform="matrix(0.7071 -0.7071 0.7071 0.7071 -2.0548 303.1432)" class="st172" width="0.6" height="2.9"/>
						</g>
					</g>
				</g>
			</g>
		</g>
	</g>
</g>
</svg>
