<?xml version="1.0" encoding="UTF-8"?>
<svg xmlns="http://www.w3.org/2000/svg" xmlns:xlink="http://www.w3.org/1999/xlink" viewBox="0 0 3710 3710">
  <defs>
    <style>
      .cls-1 {
        fill: url(#linear-gradient-2);
      }

      .cls-2 {
        fill: #f0f0f0;
      }

      .cls-3 {
        opacity: .7;
      }

      .cls-4, .cls-5, .cls-6, .cls-7 {
        fill: #fff;
      }

      .cls-8 {
        opacity: .5;
      }

      .cls-9 {
        fill: url(#linear-gradient-15);
      }

      .cls-10 {
        fill: url(#linear-gradient-14);
      }

      .cls-11 {
        fill: url(#linear-gradient-6);
      }

      .cls-12 {
        fill: url(#linear-gradient-11);
      }

      .cls-13 {
        fill: url(#linear-gradient-10);
      }

      .cls-14 {
        fill: #91b3fa;
      }

      .cls-15 {
        fill: url(#linear-gradient-16);
      }

      .cls-16 {
        fill: #7d97f4;
      }

      .cls-5 {
        opacity: .72;
      }

      .cls-17 {
        fill: url(#linear-gradient-5);
      }

      .cls-6 {
        opacity: .2;
      }

      .cls-18 {
        fill: url(#linear-gradient-7);
      }

      .cls-19 {
        fill: url(#linear-gradient-9);
      }

      .cls-20 {
        fill: url(#linear-gradient-3);
      }

      .cls-7 {
        opacity: .6;
      }

      .cls-21 {
        fill: url(#linear-gradient);
      }

      .cls-22 {
        fill: #bdd0fb;
      }

      .cls-23 {
        fill: url(#linear-gradient-4);
      }

      .cls-24 {
        fill: url(#linear-gradient-8);
      }

      .cls-25 {
        fill: url(#linear-gradient-12);
      }

      .cls-26 {
        fill: url(#linear-gradient-13);
      }
    </style>
    <linearGradient id="linear-gradient" x1="3222.03" y1="3073.02" x2="1465.39" y2="1535.96" gradientUnits="userSpaceOnUse">
      <stop offset="0" stop-color="#dae3fe"/>
      <stop offset="1" stop-color="#e9effd"/>
    </linearGradient>
    <linearGradient id="linear-gradient-2" x1="4560.28" y1="1015.62" x2="1296.94" y2="2095.82" gradientUnits="userSpaceOnUse">
      <stop offset="0" stop-color="#09005d"/>
      <stop offset="1" stop-color="#1a0f91"/>
    </linearGradient>
    <linearGradient id="linear-gradient-3" x1="2780.15" y1="1211.66" x2="728.83" y2="3561.52" gradientTransform="translate(237.25 -443.1) rotate(90) scale(1 -1)" gradientUnits="userSpaceOnUse">
      <stop offset="0" stop-color="#ff928e"/>
      <stop offset="1" stop-color="#fe7062"/>
    </linearGradient>
    <linearGradient id="linear-gradient-4" x1="1345.83" y1="1864.96" x2="2881.65" y2="1864.96" gradientUnits="userSpaceOnUse">
      <stop offset="0" stop-color="#4f52ff"/>
      <stop offset="1" stop-color="#4042e2"/>
    </linearGradient>
    <linearGradient id="linear-gradient-5" x1="-1273.16" y1="1470.64" x2="-1287.51" y2="1983.72" gradientTransform="translate(1197.94) rotate(-180) scale(1 -1)" gradientUnits="userSpaceOnUse">
      <stop offset="0" stop-color="#a22b25"/>
      <stop offset="1" stop-color="#c0423c"/>
    </linearGradient>
    <linearGradient id="linear-gradient-6" x1="2922.58" y1="346.94" x2="2632.64" y2="733.54" gradientTransform="matrix(1,0,0,1,0,0)" xlink:href="#linear-gradient-3"/>
    <linearGradient id="linear-gradient-7" x1="444.1" y1="2727.05" x2="692.06" y2="2727.05" gradientTransform="translate(2153.96)" xlink:href="#linear-gradient-5"/>
    <linearGradient id="linear-gradient-8" x1="784.93" y1="2172.53" x2="662.13" y2="2970.72" gradientTransform="translate(2153.96)" xlink:href="#linear-gradient-2"/>
    <linearGradient id="linear-gradient-9" x1="527.94" y1="2132.56" x2="405.14" y2="2930.75" gradientTransform="translate(2153.96)" xlink:href="#linear-gradient-2"/>
    <linearGradient id="linear-gradient-10" x1="310.97" y1="2745.49" x2="440.07" y2="2745.49" gradientTransform="translate(2153.96)" xlink:href="#linear-gradient-5"/>
    <linearGradient id="linear-gradient-11" x1="979.77" y1="2500.73" x2="1260.89" y2="2500.73" gradientTransform="translate(381.59 -264) rotate(-19.26)" xlink:href="#linear-gradient-5"/>
    <linearGradient id="linear-gradient-12" x1="3538.8" y1="1197.18" x2="3169.26" y2="1475.76" gradientTransform="matrix(1,0,0,1,0,0)" xlink:href="#linear-gradient-3"/>
    <linearGradient id="linear-gradient-13" x1="1890.81" y1="3530.69" x2="2479.29" y2="2490.19" xlink:href="#linear-gradient-4"/>
    <linearGradient id="linear-gradient-14" x1="-1369.61" y1="1854.57" x2="-1341.19" y2="1711.49" xlink:href="#linear-gradient-5"/>
    <linearGradient id="linear-gradient-15" x1="1015.87" y1="2210.71" x2="1655.48" y2="2254.21" gradientTransform="translate(1254.09 -323.89) rotate(-9.86)" xlink:href="#linear-gradient-5"/>
    <linearGradient id="linear-gradient-16" x1="-1677.98" y1="1834.82" x2="-1296.19" y2="1834.82" gradientTransform="translate(1197.94) rotate(-180) scale(1 -1)" xlink:href="#linear-gradient-2"/>
  </defs>
  <g id="Background">
    <rect class="cls-4" width="3710" height="3710"/>
  </g>
  <g id="Illustration">
    <g>
      <path class="cls-21" d="m2923.49,2274.76c-227.03,534.56-831.78,834.03-1356.23,753.25-85.34-13.14-319.29-52.3-526.43-237.02-398.75-355.6-484.02-1059.74-162.37-1555.97,234.11-361.16,653.78-565.9,1052.55-555.66,85.89,2.21,415.08,15.8,704.37,254.35,42.49,35.04,136.21,118.3,220.68,250.38,198.34,310.16,215.38,742.28,67.43,1090.67Z"/>
      <g>
        <path class="cls-14" d="m3002.96,1574.48c-.28-14.99-12.51-27.6-27.5-27.6h-566.54c-15.19,0-28.39,13.53-28.39,28.72v1357.64c0,7.31,3.35,14.31,8.52,19.47,5.17,5.16,12.41,8.05,19.72,8.03l592.13-1.62c7.37-.02,14.48-3,19.64-8.27,5.16-5.27,8.01-12.69,7.87-20.06l-25.46-1356.32Z"/>
        <g class="cls-8">
          <g>
            <path class="cls-4" d="m2571.04,1600.87h-146.38c-4.35,0-3.3,7.6-3.3,12.26v26.5c0,4.66-1.06,12.41,3.3,12.41h146.38c4.35,0,6.66-7.76,6.66-12.41v-26.5c0-4.66-2.31-12.26-6.66-12.26Z"/>
            <path class="cls-4" d="m2766.97,1600.87h-146.38c-4.35,0-5.93,7.6-5.93,12.26v26.5c0,4.66,1.57,12.41,5.93,12.41h146.38c4.35,0,4.03-7.76,4.03-12.41v-26.5c0-4.66.32-12.26-4.03-12.26Z"/>
            <path class="cls-4" d="m2962.9,1600.87h-146.38c-4.35,0-11.4,7.6-11.4,12.26v26.5c0,4.66,7.05,12.41,11.4,12.41h146.38c4.35,0,9.93-7.76,9.93-12.41v-26.5c0-4.66-5.58-12.26-9.93-12.26Z"/>
          </g>
          <g>
            <path class="cls-4" d="m2571.04,1714.57h-146.38c-4.35,0-3.3-1.33-3.3,3.33v26.5c0,4.66-1.06,12.81,3.3,12.81h146.38c4.35,0,6.66-8.16,6.66-12.81v-26.5c0-4.66-2.31-3.33-6.66-3.33Z"/>
            <path class="cls-4" d="m2766.97,1714.57h-146.38c-4.35,0-5.93-1.33-5.93,3.33v26.5c0,4.66,1.57,12.81,5.93,12.81h146.38c4.35,0,4.03-8.16,4.03-12.81v-26.5c0-4.66.32-3.33-4.03-3.33Z"/>
            <path class="cls-4" d="m2962.9,1714.57h-146.38c-4.35,0-11.4-1.33-11.4,3.33v26.5c0,4.66,7.05,12.81,11.4,12.81h146.38c4.35,0,9.93-8.16,9.93-12.81v-26.5c0-4.66-5.58-3.33-9.93-3.33Z"/>
          </g>
          <g>
            <path class="cls-4" d="m2571.04,1814.06h-146.38c-4.35,0-3.3,3.96-3.3,8.62v26.5c0,4.66-1.06,10.37,3.3,10.37h146.38c4.35,0,6.66-5.71,6.66-10.37v-26.5c0-4.66-2.31-8.62-6.66-8.62Z"/>
            <path class="cls-4" d="m2766.97,1814.06h-146.38c-4.35,0-5.93,3.96-5.93,8.62v26.5c0,4.66,1.57,10.37,5.93,10.37h146.38c4.35,0,4.03-5.71,4.03-10.37v-26.5c0-4.66.32-8.62-4.03-8.62Z"/>
            <path class="cls-4" d="m2962.9,1814.06h-146.38c-4.35,0-11.4,3.96-11.4,8.62v26.5c0,4.66,7.05,10.37,11.4,10.37h146.38c4.35,0,9.93-5.71,9.93-10.37v-26.5c0-4.66-5.58-8.62-9.93-8.62Z"/>
          </g>
          <g>
            <path class="cls-4" d="m2571.04,1922.08h-146.38c-4.35,0-3.3.72-3.3,5.38v26.5c0,4.66-1.06,10.76,3.3,10.76h146.38c4.35,0,6.66-6.11,6.66-10.76v-26.5c0-4.66-2.31-5.38-6.66-5.38Z"/>
            <path class="cls-4" d="m2766.97,1922.08h-146.38c-4.35,0-5.93.72-5.93,5.38v26.5c0,4.66,1.57,10.76,5.93,10.76h146.38c4.35,0,4.03-6.11,4.03-10.76v-26.5c0-4.66.32-5.38-4.03-5.38Z"/>
            <path class="cls-4" d="m2962.9,1922.08h-146.38c-4.35,0-11.4.72-11.4,5.38v26.5c0,4.66,7.05,10.76,11.4,10.76h146.38c4.35,0,9.93-6.11,9.93-10.76v-26.5c0-4.66-5.58-5.38-9.93-5.38Z"/>
          </g>
          <g>
            <path class="cls-4" d="m2571.04,2021.57h-146.38c-4.35,0-3.3,6.01-3.3,10.67v26.5c0,4.66-1.06,8.32,3.3,8.32h146.38c4.35,0,6.66-3.66,6.66-8.32v-26.5c0-4.66-2.31-10.67-6.66-10.67Z"/>
            <path class="cls-4" d="m2766.97,2021.57h-146.38c-4.35,0-5.93,6.01-5.93,10.67v26.5c0,4.66,1.57,8.32,5.93,8.32h146.38c4.35,0,4.03-3.66,4.03-8.32v-26.5c0-4.66.32-10.67-4.03-10.67Z"/>
            <path class="cls-4" d="m2962.9,2021.57h-146.38c-4.35,0-11.4,6.01-11.4,10.67v26.5c0,4.66,7.05,8.32,11.4,8.32h146.38c4.35,0,9.93-3.66,9.93-8.32v-26.5c0-4.66-5.58-10.67-9.93-10.67Z"/>
          </g>
          <g>
            <path class="cls-4" d="m2571.04,2129.59h-146.38c-4.35,0-3.3,2.77-3.3,7.43v26.5c0,4.66-1.06,8.72,3.3,8.72h146.38c4.35,0,6.66-4.06,6.66-8.72v-26.5c0-4.66-2.31-7.43-6.66-7.43Z"/>
            <path class="cls-4" d="m2766.97,2129.59h-146.38c-4.35,0-5.93,2.77-5.93,7.43v26.5c0,4.66,1.57,8.72,5.93,8.72h146.38c4.35,0,4.03-4.06,4.03-8.72v-26.5c0-4.66.32-7.43-4.03-7.43Z"/>
            <path class="cls-4" d="m2962.9,2129.59h-146.38c-4.35,0-11.4,2.77-11.4,7.43v26.5c0,4.66,7.05,8.72,11.4,8.72h146.38c4.35,0,9.93-4.06,9.93-8.72v-26.5c0-4.66-5.58-7.43-9.93-7.43Z"/>
          </g>
          <g>
            <path class="cls-4" d="m2571.04,2229.09h-146.38c-4.35,0-3.3,8.06-3.3,12.71v26.5c0,4.66-1.06,11.96,3.3,11.96h146.38c4.35,0,6.66-7.3,6.66-11.96v-26.5c0-4.66-2.31-12.71-6.66-12.71Z"/>
            <path class="cls-4" d="m2766.97,2229.09h-146.38c-4.35,0-5.93,8.06-5.93,12.71v26.5c0,4.66,1.57,11.96,5.93,11.96h146.38c4.35,0,4.03-7.3,4.03-11.96v-26.5c0-4.66.32-12.71-4.03-12.71Z"/>
            <path class="cls-4" d="m2962.9,2229.09h-146.38c-4.35,0-11.4,8.06-11.4,12.71v26.5c0,4.66,7.05,11.96,11.4,11.96h146.38c4.35,0,9.93-7.3,9.93-11.96v-26.5c0-4.66-5.58-12.71-9.93-12.71Z"/>
          </g>
          <g>
            <path class="cls-4" d="m2571.04,2337.11h-146.38c-4.35,0-3.3,4.82-3.3,9.47v26.5c0,4.66-1.06,15.2,3.3,15.2h146.38c4.35,0,6.66-10.54,6.66-15.2v-26.5c0-4.66-2.31-9.47-6.66-9.47Z"/>
            <path class="cls-4" d="m2766.97,2337.11h-146.38c-4.35,0-5.93,4.82-5.93,9.47v26.5c0,4.66,1.57,15.2,5.93,15.2h146.38c4.35,0,4.03-10.54,4.03-15.2v-26.5c0-4.66.32-9.47-4.03-9.47Z"/>
            <path class="cls-4" d="m2962.9,2337.11h-146.38c-4.35,0-11.4,4.82-11.4,9.47v26.5c0,4.66,7.05,15.2,11.4,15.2h146.38c4.35,0,9.93-10.54,9.93-15.2v-26.5c0-4.66-5.58-9.47-9.93-9.47Z"/>
          </g>
          <g>
            <path class="cls-4" d="m2571.04,2439.44h-146.38c-4.35,0-3.3,7.26-3.3,11.92v26.5c0,4.66-1.06,9.91,3.3,9.91h146.38c4.35,0,6.66-5.25,6.66-9.91v-26.5c0-4.66-2.31-11.92-6.66-11.92Z"/>
            <path class="cls-4" d="m2766.97,2439.44h-146.38c-4.35,0-5.93,7.26-5.93,11.92v26.5c0,4.66,1.57,9.91,5.93,9.91h146.38c4.35,0,4.03-5.25,4.03-9.91v-26.5c0-4.66.32-11.92-4.03-11.92Z"/>
            <path class="cls-4" d="m2962.9,2439.44h-146.38c-4.35,0-11.4,7.26-11.4,11.92v26.5c0,4.66,7.05,9.91,11.4,9.91h146.38c4.35,0,9.93-5.25,9.93-9.91v-26.5c0-4.66-5.58-11.92-9.93-11.92Z"/>
          </g>
          <g>
            <path class="cls-4" d="m2571.04,2550.3h-146.38c-4.35,0-3.3,1.18-3.3,5.84v26.5c0,4.66-1.06,13.15,3.3,13.15h146.38c4.35,0,6.66-8.49,6.66-13.15v-26.5c0-4.66-2.31-5.84-6.66-5.84Z"/>
            <path class="cls-4" d="m2766.97,2550.3h-146.38c-4.35,0-5.93,1.18-5.93,5.84v26.5c0,4.66,1.57,13.15,5.93,13.15h146.38c4.35,0,4.03-8.49,4.03-13.15v-26.5c0-4.66.32-5.84-4.03-5.84Z"/>
            <path class="cls-4" d="m2962.9,2550.3h-146.38c-4.35,0-11.4,1.18-11.4,5.84v26.5c0,4.66,7.05,13.15,11.4,13.15h146.38c4.35,0,9.93-8.49,9.93-13.15v-26.5c0-4.66-5.58-5.84-9.93-5.84Z"/>
          </g>
          <g>
            <path class="cls-4" d="m2571.04,2658.32h-146.38c-4.35,0-3.3-2.06-3.3,2.59v26.5c0,4.66-1.06,7.86,3.3,7.86h146.38c4.35,0,6.66-3.21,6.66-7.86v-26.5c0-4.66-2.31-2.59-6.66-2.59Z"/>
            <path class="cls-4" d="m2766.97,2658.32h-146.38c-4.35,0-5.93-2.06-5.93,2.59v26.5c0,4.66,1.57,7.86,5.93,7.86h146.38c4.35,0,4.03-3.21,4.03-7.86v-26.5c0-4.66.32-2.59-4.03-2.59Z"/>
            <path class="cls-4" d="m2962.9,2658.32h-146.38c-4.35,0-11.4-2.06-11.4,2.59v26.5c0,4.66,7.05,7.86,11.4,7.86h146.38c4.35,0,9.93-3.21,9.93-7.86v-26.5c0-4.66-5.58-2.59-9.93-2.59Z"/>
          </g>
          <g>
            <path class="cls-4" d="m2571.04,2757.81h-146.38c-4.35,0-3.3,3.23-3.3,7.88v26.5c0,4.66-1.06,11.1,3.3,11.1h146.38c4.35,0,6.66-6.45,6.66-11.1v-26.5c0-4.66-2.31-7.88-6.66-7.88Z"/>
            <path class="cls-4" d="m2766.97,2757.81h-146.38c-4.35,0-5.93,3.23-5.93,7.88v26.5c0,4.66,1.57,11.1,5.93,11.1h146.38c4.35,0,4.03-6.45,4.03-11.1v-26.5c0-4.66.32-7.88-4.03-7.88Z"/>
            <path class="cls-4" d="m2962.9,2757.81h-146.38c-4.35,0-11.4,3.23-11.4,7.88v26.5c0,4.66,7.05,11.1,11.4,11.1h146.38c4.35,0,9.93-6.45,9.93-11.1v-26.5c0-4.66-5.58-7.88-9.93-7.88Z"/>
          </g>
        </g>
      </g>
      <g>
        <path class="cls-22" d="m1246.42,2238.33c-103.24,25.37-241.21-82.38-289.47-204.56-49.67-125.74,28.85-182.74,20.49-359.87-9.49-201.2-115.49-226.96-196.57-495.19-18.29-60.52-124.15-410.72-15-481.99,100.92-65.9,399.61,97.55,460.45,320.77,43.39,159.17-66.09,231.58-14.98,416.94,44.85,162.64,143.97,160.7,188.82,317.55,54.61,190.95-18.17,453.03-153.73,486.34Z"/>
        <path class="cls-16" d="m1240.98,2287.41c18.61-218.04-50.76-550.14-112.23-790.34-66.56-260.06-138.44-471.42-139.15-473.53l-8.56,2.92c.72,2.1,72.5,213.18,138.97,472.91,61.29,239.51,130.47,570.51,111.97,787.27l9.01.77Z"/>
      </g>
      <g>
        <path class="cls-14" d="m1246.24,2829.87c140.61-66.11,197.81-310.51,122.82-393.77-50.67-56.26-128.82-2.46-199.69-61.52-90.48-75.41-16.25-207.44-82.54-385.32-56.41-151.37-200.56-298.32-289.34-273.01-92.93,26.5-150.4,248.93-77.62,387.19,47.34,89.91,125.11,97.41,138.69,179.79,15.75,95.59-80.83,134.94-85.1,226.81-7.68,165.03,286.76,407.28,472.78,319.83Z"/>
        <path class="cls-16" d="m1169.37,2889.91c.82.03,1.66-.11,2.47-.46,2.84-1.24,4.14-4.55,2.9-7.39-167.14-383.57-202.82-822.07-203.17-826.46-.24-3.09-2.94-5.4-6.03-5.16-3.09.24-5.4,2.94-5.16,6.03.34,4.4,36.18,444.79,204.07,830.07.89,2.04,2.84,3.28,4.92,3.37Z"/>
        <path class="cls-2" d="m824.01,2162.75c.58.02,1.16-.14,1.67-.5,1.2-.86,1.48-2.54.62-3.74-54.59-76.31-113.9-190.02-86.44-298.41,16.35-64.55,56.27-96.94,56.67-97.26,1.16-.92,1.35-2.61.43-3.77-.92-1.16-2.61-1.35-3.77-.43-1.7,1.35-41.74,33.84-58.53,100.14-15.43,60.93-12.82,162.93,87.28,302.85.5.7,1.28,1.09,2.07,1.12Z"/>
        <path class="cls-2" d="m1260,2797.53c.85.03,1.71-.34,2.26-1.07,93.82-125.6,128.1-224.21,101.87-293.09-23.32-61.24-87.94-75.1-88.59-75.24-1.45-.29-2.87.64-3.16,2.09-.3,1.45.64,2.87,2.09,3.17.62.13,62.46,13.47,84.68,71.95,25.48,67.05-8.56,163.91-101.18,287.9-.89,1.19-.64,2.87.54,3.75.45.34.97.51,1.49.53Z"/>
      </g>
      <g>
        <path class="cls-1" d="m1378.19,815.34l1143.49,33.17c109.29,3.17,196.64,68.34,199.97,149.21l72.95,1768.96c3.44,83.43-83.59,153.7-196.26,158.47l-1273.34,53.82c-121.35,5.13-222.81-67.38-220.06-157.26l56.91-1855.94c2.64-86.04,100.08-153.78,216.34-150.41Z"/>
        <path class="cls-20" d="m1424.36,892.95l1061.45,30.79c101.45,2.94,182.53,63.44,185.63,138.5l67.71,1642.05c3.19,77.44-77.59,142.68-182.18,147.1l-1181.99,49.96c-112.64,4.76-206.83-62.55-204.27-145.98l52.83-1722.8c2.45-79.87,92.9-142.75,200.82-139.62Z"/>
        <path class="cls-6" d="m1458.12,945.27l983.58,28.53c94.01,2.73,169.14,58.79,172.01,128.34l62.74,1521.57c2.96,71.76-71.9,132.21-168.81,136.31l-1095.27,46.29c-104.38,4.41-191.65-57.96-189.28-135.27l48.95-1596.4c2.27-74.01,86.08-132.28,186.08-129.38Z"/>
      </g>
      <g>
        <g>
          <rect class="cls-23" x="1345.83" y="756.76" width="1535.82" height="2216.4" rx="37.01" ry="37.01"/>
          <rect class="cls-14" x="1401.87" y="815.32" width="1425.24" height="2106.1" rx="37.01" ry="37.01"/>
          <g>
            <path class="cls-22" d="m1370.06,1404.5c-2.35,0-4.26-1.91-4.26-4.26v-496.09c0-64.18,52.21-116.39,116.39-116.39h375.58c2.35,0,4.26,1.91,4.26,4.26s-1.91,4.26-4.26,4.26h-375.58c-59.48,0-107.86,48.39-107.86,107.86v496.09c0,2.35-1.91,4.26-4.26,4.26Z"/>
            <path class="cls-22" d="m1370.06,1824.46c-2.35,0-4.26-1.91-4.26-4.26v-342.55c0-2.35,1.91-4.26,4.26-4.26s4.26,1.91,4.26,4.26v342.55c0,2.35-1.91,4.26-4.26,4.26Z"/>
          </g>
        </g>
        <g class="cls-3">
          <rect class="cls-4" x="1487.62" y="909.45" width="682.55" height="157.17" rx="10.69" ry="10.69"/>
          <path class="cls-4" d="m1534.02,1162.03h260.8c3.7,0,6.7,3,6.7,6.7v224.8c0,3.7-3,6.7-6.7,6.7h-260.8c-3.7,0-6.7-3-6.7-6.7v-224.8c0-3.7,3-6.7,6.7-6.7Z"/>
          <rect class="cls-4" x="1875.59" y="1162.03" width="834.39" height="73.93" rx="2.92" ry="2.92"/>
          <rect class="cls-4" x="1875.59" y="1271.09" width="646.58" height="73.93" rx="6.26" ry="6.26"/>
          <path class="cls-4" d="m1529.86,1525.78h260.8c3.7,0,6.7,3,6.7,6.7v224.8c0,3.7-3,6.7-6.7,6.7h-260.8c-3.7,0-6.7-3-6.7-6.7v-224.8c0-3.7,3-6.7,6.7-6.7Z"/>
          <rect class="cls-4" x="1871.43" y="1525.78" width="834.39" height="73.93" rx="2.92" ry="2.92"/>
          <rect class="cls-4" x="1871.43" y="1634.83" width="646.58" height="73.93" rx="6.26" ry="6.26"/>
          <rect class="cls-4" x="1523.16" y="1860.57" width="274.2" height="238.19" rx="6.7" ry="6.7"/>
          <rect class="cls-4" x="1871.43" y="1860.57" width="834.39" height="73.93" rx="2.92" ry="2.92"/>
          <rect class="cls-4" x="1871.43" y="1969.62" width="646.58" height="73.93" rx="6.26" ry="6.26"/>
          <path class="cls-4" d="m1529.86,2197.15h260.8c3.7,0,6.7,3,6.7,6.7v224.8c0,3.7-3,6.7-6.7,6.7h-260.8c-3.7,0-6.7-3-6.7-6.7v-224.8c0-3.7,3-6.7,6.7-6.7Z"/>
          <rect class="cls-4" x="1871.43" y="2197.15" width="834.39" height="73.93" rx="2.92" ry="2.92"/>
          <rect class="cls-4" x="1871.43" y="2306.2" width="646.58" height="73.93" rx="6.26" ry="6.26"/>
          <rect class="cls-4" x="1523.16" y="2531.94" width="274.2" height="238.19" rx="6.7" ry="6.7"/>
          <rect class="cls-4" x="1871.43" y="2531.94" width="834.39" height="73.93" rx="2.92" ry="2.92"/>
          <rect class="cls-4" x="1871.43" y="2640.99" width="646.58" height="73.93" rx="6.26" ry="6.26"/>
        </g>
      </g>
      <g>
        <path class="cls-17" d="m2320.45,1644.1s5.78,251.71,270.45,295.85l47.51-46.9s-229.18-77.92-288.84-240.76l12.74-86.36-8.98-57.15-32.88,135.32Z"/>
        <g>
          <circle class="cls-4" cx="2234.4" cy="1263.48" r="339.55"/>
          <circle class="cls-11" cx="2236.91" cy="1261.17" r="302.26"/>
          <g>
            <path class="cls-4" d="m2353.08,1465.66c-14.91-1.08-62.09-9.77-61.55-75.78l1.6-194.33c.02-2.47-.13-3.74-2.75-3.69l-160.26,2.88c-2.7.05-4.91,1.38-4.97,3.88l-.23,10.38c-.05,2.39,1.89,4.33,4.45,4.44,15.33.69,63.91,5.27,62.93,35.91-1.17,36.53-3.07,186.98-3.07,186.98,0,0-1.15,33.02-57.68,36.4-2.72.16-4.44,2.34-4.5,4.92l-.28,13.15c-.06,2.63,1.14,4.7,3.9,4.58l222.07-9.69c2.66-.12,6.22-2.36,6.23-4.93l.03-10.76c0-2.36-3.5-4.19-5.92-4.36Z"/>
            <path class="cls-4" d="m2235.08,1150.26c39.44-.57,71.43-30.73,71.69-67.17.26-36.22-30.96-65.34-69.96-65.22-39.27.12-71.85,29.78-72.55,66.45-.7,36.9,31.12,66.51,70.83,65.94Z"/>
          </g>
        </g>
        <g>
          <path class="cls-18" d="m2598.06,2498.15s132.65,289.1,202.24,408.85c0,0,13.82,75.35,0,99.04l-11.78,5.24,54.98-1.64s4.88-101.35,1.07-107.01c-3.81-5.66-11.44-5.29-11.44-5.29,0,0-23.57-186.76-91.84-226.62l-66.16-227.88-77.06,55.31Z"/>
          <path class="cls-24" d="m2765.04,3025.47c-.08,1.33,42.93.72,66.29.29,8.63-.16,15.98-6.22,17.82-14.65l17.64-92.7c1.68-8.81-3.92-17.37-12.66-19.36l-9.85-2.25s-14.05,19.27-9.63,37.42c4.42,18.15,8.36,65.15-2.82,70.63-11.18,5.48-43.33,6.43-43.33,6.43,0,0-22.74,2.26-23.48,14.19Z"/>
          <path class="cls-19" d="m2475.17,3027.15c-4.35,2.48-2.56,9.12,2.45,9.07,39.1-.39,126.71-1.63,134.5-4.87,10.05-4.18-3.66-40.3-18.1-52.52l-79.69,26.01-39.16,22.31Z"/>
          <path class="cls-13" d="m2464.93,2479.71s71.23,414.68,95.48,495.57l-57.36,36s28.75-4.89,50.06-6.43c21.32-1.54,40.92-26.01,40.92-26.01l-6.87-10.96s-21.5-412.42-16.26-459.25l-105.97-28.91Z"/>
          <path class="cls-12" d="m2171.24,1594.62s36.88,234.69,281.77,246.79l-9.06,117.4s-237.73-3.63-293.9-321.93c-1.46-8.29-8.16-14.72-15.46-18.93l-50.14-28.92c-19.1-11.02-31.66-30.63-33.66-52.59l-1.86-20.41c-.62-6.83,5.48-12.36,12.21-11.06l4.49.86c14.29,2.75,27.35,9.92,37.34,20.49l31.2,33.03c11.65,12.34,29.84,15.95,45.33,8.99l10.5-4.72-18.76,30.99Z"/>
          <path class="cls-25" d="m2415.38,1822.25c32.86,9.11,144.17,38.39,213.66,37.2l-42.67,240.77,3.4,39.27-139.11-.62s-39.16-90.94-70.06-136.29c-8.92-13.1-2.28-28.71,2.78-43.73l-6.95-4.63c-7.07-4.71-10.14-13.55-7.5-21.63l33.88-103.64c1.76-5.22,7.26-8.17,12.57-6.7Z"/>
          <path class="cls-26" d="m2439.52,2118.31l2.74,23.79s-20.48,173.47,38.48,448.44c0,0,123.38,22.13,228.35-64.44,0,0-44.11-301.22-52.2-313.31-40.28-60.21-67.12-73.3-67.12-73.3l-1.21-25.99s-112.27,20.3-149.04,4.82Z"/>
          <path class="cls-10" d="m2529.95,1761.39l-6.58,77.36c-.9,10.64,7.49,19.77,18.16,19.77h58.63l-19.51-148.26-50.7,51.13Z"/>
          <path class="cls-9" d="m2542.47,1615.07c-2.48,2.21-82.56,52.86-48.46,139.2,2.02,5.1,6.33,8.97,11.64,10.32,13.64,3.45,42.58,8.38,74.6-.6,44.4-12.45,60.31-96.46,55.06-119.19-5.25-22.73-68.29-51.67-92.85-29.74Z"/>
          <g>
            <path class="cls-15" d="m2650.4,1681c9.74,62.09,16.93,59.59,39.78,87.21,37.03,44.77,90.01-1.38,141.52,41.04,37.18,30.63,55.1,108.99,37.25,172.25-24.71,87.63-125.67,132.29-169.44,105.6-41.83-25.51-28.84-67.8-85.12-97.33-23.89-12.53-46.64-38.54-60.95-57.12-25.05-32.52-15.56-77.38-12.96-101.69,5.65-52.75,23.55-78.93,17.06-102.11-12.63-45.09-58.18-45.99-63.09-77.83-4.47-28.99,38.24-83.94,78.43-75.28,62.19,13.4,73.18,77.58,77.52,105.24Z"/>
            <path class="cls-7" d="m2845.67,1960.62c.86.15,1.73-.32,2.1-1.17,16.06-37.93,17.44-71.07,4.12-98.5-22.11-45.52-77.95-59.26-78.51-59.39-.86-.3-2.06.42-2.32,1.48-.25,1.06.38,2.12,1.42,2.37.55.13,54.69,13.49,75.98,57.36,12.78,26.33,11.36,58.34-4.21,95.13-.42,1,.02,2.16.99,2.59.14.06.29.1.43.13Z"/>
            <path class="cls-5" d="m2509.28,1655.14c.84,1.03,1.74,2.08,2.74,3.17,9.74,10.75,23.87,20.08,37.54,29.1,21.6,14.25,41.99,27.7,39.82,44.04-.05.38-.52.47-1.04.19-.11-.06-.21-.12-.3-.2-.36-.29-.6-.69-.57-.99,2.01-15.19-16.74-27.55-38.42-41.86-13.87-9.16-28.21-18.62-38.28-29.73-.92-1.02-1.77-2.01-2.58-2.97.36-.25.73-.5,1.09-.75Z"/>
          </g>
        </g>
      </g>
    </g>
  </g>
</svg>